<svg width="24" height="24" viewBox="0 0 24 24" fill="none" xmlns="http://www.w3.org/2000/svg">
<g clip-path="url(#clip0_571_222)">
<mask id="mask0_571_222" style="mask-type:alpha" maskUnits="userSpaceOnUse" x="-1" y="0" width="25" height="25">
<rect x="-0.486816" y="0.459351" width="24" height="24" fill="#D9D9D9"/>
</mask>
<g mask="url(#mask0_571_222)">
<path d="M7.34018 16.6324L13.7439 14.6901L15.6862 8.28635L9.28243 10.2286L7.34018 16.6324ZM11.5109 13.7671C11.1471 13.7671 10.8386 13.6397 10.5854 13.3849C10.3321 13.1302 10.2054 12.8209 10.2054 12.4571C10.2054 12.0933 10.3329 11.7848 10.5877 11.5316C10.8424 11.2783 11.1516 11.1516 11.5154 11.1516C11.8793 11.1516 12.1878 11.279 12.4409 11.5339C12.6943 11.7885 12.8209 12.0978 12.8209 12.4616C12.8209 12.8254 12.6935 13.1339 12.4387 13.3871C12.184 13.6404 11.8748 13.7671 11.5109 13.7671ZM11.5149 21.9594C10.2009 21.9594 8.96585 21.71 7.80968 21.2114C6.65352 20.7127 5.64785 20.0359 4.79268 19.1811C3.93752 18.3263 3.26043 17.321 2.76143 16.1654C2.2626 15.0097 2.01318 13.7749 2.01318 12.4611C2.01318 11.1471 2.26252 9.91202 2.76118 8.75585C3.25985 7.59968 3.9366 6.59402 4.79143 5.73885C5.64627 4.88368 6.65152 4.2066 7.80718 3.7076C8.96285 3.20877 10.1976 2.95935 11.5114 2.95935C12.8254 2.95935 14.0605 3.20868 15.2167 3.70735C16.3729 4.20602 17.3785 4.88277 18.2337 5.7376C19.0889 6.59243 19.7659 7.59768 20.2649 8.75335C20.7638 9.90902 21.0132 11.1438 21.0132 12.4576C21.0132 13.7716 20.7639 15.0067 20.2652 16.1629C19.7665 17.319 19.0898 18.3247 18.2349 19.1799C17.3801 20.035 16.3749 20.7121 15.2192 21.2111C14.0635 21.7099 12.8288 21.9594 11.5149 21.9594ZM11.5132 20.4594C13.7362 20.4594 15.6253 19.6818 17.1804 18.1266C18.7356 16.5714 19.5132 14.6824 19.5132 12.4594C19.5132 10.2364 18.7356 8.34727 17.1804 6.7921C15.6253 5.23693 13.7362 4.45935 11.5132 4.45935C9.29018 4.45935 7.4011 5.23693 5.84593 6.7921C4.29077 8.34727 3.51318 10.2364 3.51318 12.4594C3.51318 14.6824 4.29077 16.5714 5.84593 18.1266C7.4011 19.6818 9.29018 20.4594 11.5132 20.4594Z" fill="#8A8E8A"/>
</g>
</g>
<defs>
<clipPath id="clip0_571_222">
<rect width="24" height="24" fill="white"/>
</clipPath>
</defs>
</svg>
