<svg width="345" height="112" viewBox="0 0 345 112" fill="none" xmlns="http://www.w3.org/2000/svg">
<rect width="345" height="100" transform="translate(0 6.44299)" fill="#FDF9F7"/>
<path d="M16.07 30.943L19.92 21.143H21.838L25.674 30.943H23.434L21.502 25.763C21.4367 25.6043 21.3667 25.4083 21.292 25.175C21.2173 24.9417 21.138 24.699 21.054 24.447C20.97 24.195 20.8907 23.9523 20.816 23.719C20.7507 23.4857 20.6947 23.2803 20.648 23.103H21.04C20.984 23.3177 20.9233 23.5417 20.858 23.775C20.7927 23.999 20.718 24.2277 20.634 24.461C20.5593 24.685 20.48 24.909 20.396 25.133C20.3213 25.357 20.2467 25.581 20.172 25.805L18.24 30.943H16.07ZM17.876 28.955L18.576 27.219H23.07L23.784 28.955H17.876ZM29.2344 31.083C28.525 31.083 27.8997 30.971 27.3584 30.747C26.817 30.5137 26.3784 30.1963 26.0424 29.795L27.3304 28.703C27.6197 28.9923 27.9417 29.207 28.2964 29.347C28.651 29.487 29.0057 29.557 29.3604 29.557C29.491 29.557 29.6124 29.543 29.7244 29.515C29.8364 29.4777 29.9297 29.431 30.0044 29.375C30.0884 29.3097 30.149 29.2397 30.1864 29.165C30.2237 29.081 30.2424 28.9877 30.2424 28.885C30.2424 28.689 30.163 28.535 30.0044 28.423C29.911 28.367 29.7664 28.3063 29.5704 28.241C29.3744 28.1757 29.1224 28.101 28.8144 28.017C28.3477 27.8957 27.951 27.7557 27.6244 27.597C27.2977 27.4383 27.0364 27.2563 26.8404 27.051C26.663 26.855 26.5277 26.6403 26.4344 26.407C26.341 26.1737 26.2944 25.917 26.2944 25.637C26.2944 25.2917 26.369 24.9837 26.5184 24.713C26.677 24.433 26.8917 24.195 27.1624 23.999C27.433 23.7937 27.741 23.6397 28.0864 23.537C28.441 23.425 28.805 23.369 29.1784 23.369C29.5797 23.369 29.9624 23.4157 30.3264 23.509C30.6904 23.6023 31.031 23.7377 31.3484 23.915C31.6657 24.083 31.9457 24.2837 32.1884 24.517L31.0824 25.735C30.9144 25.5857 30.723 25.4457 30.5084 25.315C30.303 25.1843 30.0884 25.0817 29.8644 25.007C29.6404 24.9323 29.435 24.895 29.2484 24.895C29.099 24.895 28.9637 24.909 28.8424 24.937C28.7304 24.9557 28.6324 24.993 28.5484 25.049C28.4644 25.105 28.4037 25.175 28.3664 25.259C28.329 25.3337 28.3104 25.4223 28.3104 25.525C28.3104 25.6277 28.3337 25.7257 28.3804 25.819C28.4364 25.903 28.511 25.9777 28.6044 26.043C28.6977 26.099 28.847 26.1643 29.0524 26.239C29.2577 26.3137 29.533 26.3977 29.8784 26.491C30.3264 26.6123 30.7044 26.7477 31.0124 26.897C31.3297 27.0463 31.5817 27.2237 31.7684 27.429C31.927 27.5877 32.0437 27.7743 32.1184 27.989C32.193 28.2037 32.2304 28.437 32.2304 28.689C32.2304 29.1557 32.0997 29.571 31.8384 29.935C31.577 30.2897 31.2177 30.5697 30.7604 30.775C30.3124 30.9803 29.8037 31.083 29.2344 31.083ZM36.125 31.083C35.4157 31.083 34.7903 30.971 34.249 30.747C33.7077 30.5137 33.269 30.1963 32.933 29.795L34.221 28.703C34.5103 28.9923 34.8323 29.207 35.187 29.347C35.5417 29.487 35.8963 29.557 36.251 29.557C36.3817 29.557 36.503 29.543 36.615 29.515C36.727 29.4777 36.8203 29.431 36.895 29.375C36.979 29.3097 37.0397 29.2397 37.077 29.165C37.1143 29.081 37.133 28.9877 37.133 28.885C37.133 28.689 37.0537 28.535 36.895 28.423C36.8017 28.367 36.657 28.3063 36.461 28.241C36.265 28.1757 36.013 28.101 35.705 28.017C35.2383 27.8957 34.8417 27.7557 34.515 27.597C34.1883 27.4383 33.927 27.2563 33.731 27.051C33.5537 26.855 33.4183 26.6403 33.325 26.407C33.2317 26.1737 33.185 25.917 33.185 25.637C33.185 25.2917 33.2597 24.9837 33.409 24.713C33.5677 24.433 33.7823 24.195 34.053 23.999C34.3237 23.7937 34.6317 23.6397 34.977 23.537C35.3317 23.425 35.6957 23.369 36.069 23.369C36.4703 23.369 36.853 23.4157 37.217 23.509C37.581 23.6023 37.9217 23.7377 38.239 23.915C38.5563 24.083 38.8363 24.2837 39.079 24.517L37.973 25.735C37.805 25.5857 37.6137 25.4457 37.399 25.315C37.1937 25.1843 36.979 25.0817 36.755 25.007C36.531 24.9323 36.3257 24.895 36.139 24.895C35.9897 24.895 35.8543 24.909 35.733 24.937C35.621 24.9557 35.523 24.993 35.439 25.049C35.355 25.105 35.2943 25.175 35.257 25.259C35.2197 25.3337 35.201 25.4223 35.201 25.525C35.201 25.6277 35.2243 25.7257 35.271 25.819C35.327 25.903 35.4017 25.9777 35.495 26.043C35.5883 26.099 35.7377 26.1643 35.943 26.239C36.1483 26.3137 36.4237 26.3977 36.769 26.491C37.217 26.6123 37.595 26.7477 37.903 26.897C38.2203 27.0463 38.4723 27.2237 38.659 27.429C38.8177 27.5877 38.9343 27.7743 39.009 27.989C39.0837 28.2037 39.121 28.437 39.121 28.689C39.121 29.1557 38.9903 29.571 38.729 29.935C38.4677 30.2897 38.1083 30.5697 37.651 30.775C37.203 30.9803 36.6943 31.083 36.125 31.083ZM43.0576 31.083C42.5163 31.083 42.0496 30.9663 41.6576 30.733C41.2656 30.4903 40.967 30.1497 40.7616 29.711C40.5563 29.263 40.4536 28.7263 40.4536 28.101V23.523H42.5256V27.779C42.5256 28.1057 42.577 28.3903 42.6796 28.633C42.7823 28.8663 42.9316 29.0483 43.1276 29.179C43.333 29.3003 43.5803 29.361 43.8696 29.361C44.075 29.361 44.2663 29.3283 44.4436 29.263C44.621 29.1883 44.7703 29.0903 44.8916 28.969C45.0223 28.8383 45.125 28.689 45.1996 28.521C45.2743 28.353 45.3116 28.1663 45.3116 27.961V23.523H47.3836V30.943H45.4096L45.3396 29.417L45.7176 29.249C45.6056 29.5943 45.419 29.907 45.1576 30.187C44.8963 30.467 44.5836 30.6863 44.2196 30.845C43.8556 31.0037 43.4683 31.083 43.0576 31.083ZM49.3827 30.943V23.523H51.3707L51.4407 25.917L51.0907 25.441C51.2027 25.049 51.3847 24.699 51.6367 24.391C51.8887 24.0737 52.1827 23.8263 52.5187 23.649C52.864 23.4623 53.228 23.369 53.6107 23.369C53.7787 23.369 53.9327 23.383 54.0727 23.411C54.222 23.439 54.3527 23.4717 54.4647 23.509L53.9047 25.791C53.7927 25.735 53.6527 25.6883 53.4847 25.651C53.326 25.6043 53.158 25.581 52.9807 25.581C52.766 25.581 52.5653 25.6183 52.3787 25.693C52.192 25.7677 52.0287 25.8797 51.8887 26.029C51.758 26.169 51.6553 26.3323 51.5807 26.519C51.506 26.7057 51.4687 26.9157 51.4687 27.149V30.943H49.3827ZM58.8029 31.083C58.0003 31.083 57.2956 30.9197 56.6889 30.593C56.0916 30.2663 55.6249 29.8183 55.2889 29.249C54.9529 28.6703 54.7849 28.0123 54.7849 27.275C54.7849 26.7057 54.8783 26.183 55.0649 25.707C55.2516 25.231 55.5129 24.8203 55.8489 24.475C56.1849 24.1203 56.5816 23.8497 57.0389 23.663C57.5056 23.467 58.0143 23.369 58.5649 23.369C59.0689 23.369 59.5356 23.4623 59.9649 23.649C60.4036 23.8357 60.7769 24.097 61.0849 24.433C61.4023 24.7597 61.6449 25.1517 61.8129 25.609C61.9809 26.057 62.0556 26.547 62.0369 27.079L62.0229 27.681H56.0869L55.7649 26.463H60.3289L60.0909 26.715V26.421C60.0723 26.169 59.9929 25.945 59.8529 25.749C59.7223 25.553 59.5449 25.4037 59.3209 25.301C59.1063 25.189 58.8636 25.133 58.5929 25.133C58.1916 25.133 57.8509 25.2123 57.5709 25.371C57.3003 25.5203 57.0949 25.7443 56.9549 26.043C56.8149 26.3323 56.7449 26.6917 56.7449 27.121C56.7449 27.5503 56.8336 27.9283 57.0109 28.255C57.1976 28.5723 57.4636 28.8197 57.8089 28.997C58.1543 29.1743 58.5603 29.263 59.0269 29.263C59.3536 29.263 59.6476 29.2163 59.9089 29.123C60.1703 29.0203 60.4549 28.8477 60.7629 28.605L61.7429 29.991C61.4629 30.2337 61.1596 30.4343 60.8329 30.593C60.5063 30.7517 60.1703 30.873 59.8249 30.957C59.4889 31.041 59.1483 31.083 58.8029 31.083ZM66.362 31.083C65.718 31.083 65.1394 30.9197 64.626 30.593C64.122 30.257 63.7207 29.8043 63.422 29.235C63.1327 28.6563 62.988 27.989 62.988 27.233C62.988 26.4863 63.1327 25.8237 63.422 25.245C63.7207 24.6663 64.122 24.209 64.626 23.873C65.1394 23.537 65.7227 23.369 66.376 23.369C66.712 23.369 67.0387 23.425 67.356 23.537C67.6734 23.6397 67.958 23.7843 68.21 23.971C68.4714 24.1483 68.6814 24.3537 68.84 24.587C68.9987 24.811 69.0874 25.049 69.106 25.301L68.602 25.399V20.583H70.674V30.943H68.728L68.63 29.235L69.036 29.291C69.0174 29.5243 68.9287 29.7483 68.77 29.963C68.6207 30.1777 68.4247 30.369 68.182 30.537C67.9394 30.705 67.6594 30.8403 67.342 30.943C67.034 31.0363 66.7074 31.083 66.362 31.083ZM66.852 29.361C67.216 29.361 67.5334 29.2723 67.804 29.095C68.0747 28.9177 68.2847 28.6703 68.434 28.353C68.5834 28.0357 68.658 27.6623 68.658 27.233C68.658 26.813 68.5834 26.4443 68.434 26.127C68.2847 25.8003 68.0747 25.5483 67.804 25.371C67.5334 25.1937 67.216 25.105 66.852 25.105C66.488 25.105 66.1707 25.1937 65.9 25.371C65.6387 25.5483 65.4334 25.8003 65.284 26.127C65.1347 26.4443 65.06 26.813 65.06 27.233C65.06 27.6623 65.1347 28.0357 65.284 28.353C65.4334 28.6703 65.6387 28.9177 65.9 29.095C66.1707 29.2723 66.488 29.361 66.852 29.361ZM79.2688 30.943L76.1608 23.523H78.4428L80.3748 29.067L79.8848 29.137L81.9008 23.523H84.1408L80.8788 30.943H79.2688ZM88.579 31.083C87.823 31.083 87.1463 30.9197 86.549 30.593C85.9516 30.257 85.4803 29.7997 85.135 29.221C84.7896 28.6423 84.617 27.9797 84.617 27.233C84.617 26.4863 84.7896 25.8237 85.135 25.245C85.4803 24.6663 85.9516 24.209 86.549 23.873C87.1463 23.537 87.823 23.369 88.579 23.369C89.335 23.369 90.0116 23.537 90.609 23.873C91.2063 24.209 91.673 24.6663 92.009 25.245C92.3543 25.8237 92.527 26.4863 92.527 27.233C92.527 27.9797 92.3543 28.6423 92.009 29.221C91.673 29.7997 91.2063 30.257 90.609 30.593C90.0116 30.9197 89.335 31.083 88.579 31.083ZM88.579 29.291C88.9336 29.291 89.251 29.2023 89.531 29.025C89.811 28.8383 90.0303 28.591 90.189 28.283C90.3476 27.975 90.427 27.625 90.427 27.233C90.427 26.8317 90.3476 26.477 90.189 26.169C90.0303 25.8517 89.811 25.6043 89.531 25.427C89.251 25.2497 88.9336 25.161 88.579 25.161C88.2243 25.161 87.9023 25.2543 87.613 25.441C87.333 25.6183 87.1136 25.861 86.955 26.169C86.7963 26.477 86.7216 26.8317 86.731 27.233C86.7216 27.625 86.7963 27.975 86.955 28.283C87.1136 28.591 87.333 28.8383 87.613 29.025C87.9023 29.2023 88.2243 29.291 88.579 29.291ZM96.5557 31.083C96.0143 31.083 95.5477 30.9663 95.1557 30.733C94.7637 30.4903 94.465 30.1497 94.2597 29.711C94.0543 29.263 93.9517 28.7263 93.9517 28.101V23.523H96.0237V27.779C96.0237 28.1057 96.075 28.3903 96.1777 28.633C96.2803 28.8663 96.4297 29.0483 96.6257 29.179C96.831 29.3003 97.0783 29.361 97.3677 29.361C97.573 29.361 97.7643 29.3283 97.9417 29.263C98.119 29.1883 98.2683 29.0903 98.3897 28.969C98.5203 28.8383 98.623 28.689 98.6977 28.521C98.7723 28.353 98.8097 28.1663 98.8097 27.961V23.523H100.882V30.943H98.9077L98.8377 29.417L99.2157 29.249C99.1037 29.5943 98.917 29.907 98.6557 30.187C98.3943 30.467 98.0817 30.6863 97.7177 30.845C97.3537 31.0037 96.9663 31.083 96.5557 31.083ZM106.115 31.083C105.405 31.083 104.766 30.915 104.197 30.579C103.637 30.243 103.193 29.7857 102.867 29.207C102.54 28.6283 102.377 27.9703 102.377 27.233C102.377 26.4957 102.54 25.8377 102.867 25.259C103.193 24.671 103.637 24.209 104.197 23.873C104.766 23.537 105.405 23.369 106.115 23.369C106.777 23.369 107.384 23.4903 107.935 23.733C108.485 23.9757 108.919 24.307 109.237 24.727L108.103 26.099C107.972 25.931 107.809 25.777 107.613 25.637C107.426 25.497 107.221 25.3897 106.997 25.315C106.773 25.231 106.544 25.189 106.311 25.189C105.937 25.189 105.606 25.2777 105.317 25.455C105.037 25.623 104.813 25.861 104.645 26.169C104.486 26.477 104.407 26.827 104.407 27.219C104.407 27.611 104.486 27.961 104.645 28.269C104.813 28.5677 105.041 28.8103 105.331 28.997C105.62 29.1743 105.947 29.263 106.311 29.263C106.553 29.263 106.782 29.2303 106.997 29.165C107.211 29.0997 107.407 29.0017 107.585 28.871C107.771 28.7403 107.944 28.5817 108.103 28.395L109.223 29.753C108.905 30.1543 108.467 30.4763 107.907 30.719C107.347 30.9617 106.749 31.083 106.115 31.083ZM110.482 30.943V20.583H112.526V25.035L112.12 25.203C112.214 24.867 112.396 24.5637 112.666 24.293C112.937 24.013 113.259 23.789 113.632 23.621C114.006 23.453 114.393 23.369 114.794 23.369C115.354 23.369 115.826 23.4857 116.208 23.719C116.591 23.943 116.876 24.279 117.062 24.727C117.258 25.175 117.356 25.7303 117.356 26.393V30.943H115.284V26.561C115.284 26.2343 115.238 25.9637 115.144 25.749C115.06 25.5343 114.925 25.3757 114.738 25.273C114.552 25.1703 114.323 25.1283 114.052 25.147C113.828 25.147 113.628 25.1797 113.45 25.245C113.273 25.3103 113.114 25.4083 112.974 25.539C112.844 25.6603 112.741 25.8003 112.666 25.959C112.592 26.1177 112.554 26.295 112.554 26.491V30.943H111.532C111.299 30.943 111.094 30.943 110.916 30.943C110.748 30.943 110.604 30.943 110.482 30.943ZM122.774 31.083C121.971 31.083 121.266 30.9197 120.66 30.593C120.062 30.2663 119.596 29.8183 119.26 29.249C118.924 28.6703 118.756 28.0123 118.756 27.275C118.756 26.7057 118.849 26.183 119.036 25.707C119.222 25.231 119.484 24.8203 119.82 24.475C120.156 24.1203 120.552 23.8497 121.01 23.663C121.476 23.467 121.985 23.369 122.536 23.369C123.04 23.369 123.506 23.4623 123.936 23.649C124.374 23.8357 124.748 24.097 125.056 24.433C125.373 24.7597 125.616 25.1517 125.784 25.609C125.952 26.057 126.026 26.547 126.008 27.079L125.994 27.681H120.058L119.736 26.463H124.3L124.062 26.715V26.421C124.043 26.169 123.964 25.945 123.824 25.749C123.693 25.553 123.516 25.4037 123.292 25.301C123.077 25.189 122.834 25.133 122.564 25.133C122.162 25.133 121.822 25.2123 121.542 25.371C121.271 25.5203 121.066 25.7443 120.926 26.043C120.786 26.3323 120.716 26.6917 120.716 27.121C120.716 27.5503 120.804 27.9283 120.982 28.255C121.168 28.5723 121.434 28.8197 121.78 28.997C122.125 29.1743 122.531 29.263 122.998 29.263C123.324 29.263 123.618 29.2163 123.88 29.123C124.141 29.0203 124.426 28.8477 124.734 28.605L125.714 29.991C125.434 30.2337 125.13 30.4343 124.804 30.593C124.477 30.7517 124.141 30.873 123.796 30.957C123.46 31.041 123.119 31.083 122.774 31.083ZM127.463 30.943V23.523H129.451L129.521 25.917L129.171 25.441C129.283 25.049 129.465 24.699 129.717 24.391C129.969 24.0737 130.263 23.8263 130.599 23.649C130.944 23.4623 131.308 23.369 131.691 23.369C131.859 23.369 132.013 23.383 132.153 23.411C132.302 23.439 132.433 23.4717 132.545 23.509L131.985 25.791C131.873 25.735 131.733 25.6883 131.565 25.651C131.406 25.6043 131.238 25.581 131.061 25.581C130.846 25.581 130.645 25.6183 130.459 25.693C130.272 25.7677 130.109 25.8797 129.969 26.029C129.838 26.169 129.735 26.3323 129.661 26.519C129.586 26.7057 129.549 26.9157 129.549 27.149V30.943H127.463ZM136.189 31.083C135.48 31.083 134.855 30.971 134.313 30.747C133.772 30.5137 133.333 30.1963 132.997 29.795L134.285 28.703C134.575 28.9923 134.897 29.207 135.251 29.347C135.606 29.487 135.961 29.557 136.315 29.557C136.446 29.557 136.567 29.543 136.679 29.515C136.791 29.4777 136.885 29.431 136.959 29.375C137.043 29.3097 137.104 29.2397 137.141 29.165C137.179 29.081 137.197 28.9877 137.197 28.885C137.197 28.689 137.118 28.535 136.959 28.423C136.866 28.367 136.721 28.3063 136.525 28.241C136.329 28.1757 136.077 28.101 135.769 28.017C135.303 27.8957 134.906 27.7557 134.579 27.597C134.253 27.4383 133.991 27.2563 133.795 27.051C133.618 26.855 133.483 26.6403 133.389 26.407C133.296 26.1737 133.249 25.917 133.249 25.637C133.249 25.2917 133.324 24.9837 133.473 24.713C133.632 24.433 133.847 24.195 134.117 23.999C134.388 23.7937 134.696 23.6397 135.041 23.537C135.396 23.425 135.76 23.369 136.133 23.369C136.535 23.369 136.917 23.4157 137.281 23.509C137.645 23.6023 137.986 23.7377 138.303 23.915C138.621 24.083 138.901 24.2837 139.143 24.517L138.037 25.735C137.869 25.5857 137.678 25.4457 137.463 25.315C137.258 25.1843 137.043 25.0817 136.819 25.007C136.595 24.9323 136.39 24.895 136.203 24.895C136.054 24.895 135.919 24.909 135.797 24.937C135.685 24.9557 135.587 24.993 135.503 25.049C135.419 25.105 135.359 25.175 135.321 25.259C135.284 25.3337 135.265 25.4223 135.265 25.525C135.265 25.6277 135.289 25.7257 135.335 25.819C135.391 25.903 135.466 25.9777 135.559 26.043C135.653 26.099 135.802 26.1643 136.007 26.239C136.213 26.3137 136.488 26.3977 136.833 26.491C137.281 26.6123 137.659 26.7477 137.967 26.897C138.285 27.0463 138.537 27.2237 138.723 27.429C138.882 27.5877 138.999 27.7743 139.073 27.989C139.148 28.2037 139.185 28.437 139.185 28.689C139.185 29.1557 139.055 29.571 138.793 29.935C138.532 30.2897 138.173 30.5697 137.715 30.775C137.267 30.9803 136.759 31.083 136.189 31.083ZM147.483 31.083C146.942 31.083 146.475 30.9663 146.083 30.733C145.691 30.4903 145.393 30.1497 145.187 29.711C144.982 29.263 144.879 28.7263 144.879 28.101V23.523H146.951V27.779C146.951 28.1057 147.003 28.3903 147.105 28.633C147.208 28.8663 147.357 29.0483 147.553 29.179C147.759 29.3003 148.006 29.361 148.295 29.361C148.501 29.361 148.692 29.3283 148.869 29.263C149.047 29.1883 149.196 29.0903 149.317 28.969C149.448 28.8383 149.551 28.689 149.625 28.521C149.7 28.353 149.737 28.1663 149.737 27.961V23.523H151.809V30.943H149.835L149.765 29.417L150.143 29.249C150.031 29.5943 149.845 29.907 149.583 30.187C149.322 30.467 149.009 30.6863 148.645 30.845C148.281 31.0037 147.894 31.083 147.483 31.083ZM153.808 34.023V23.523H155.796L155.866 25.203L155.488 25.077C155.544 24.769 155.698 24.489 155.95 24.237C156.212 23.985 156.534 23.7843 156.916 23.635C157.299 23.4763 157.705 23.397 158.134 23.397C158.778 23.397 159.348 23.5603 159.842 23.887C160.337 24.2137 160.729 24.6663 161.018 25.245C161.308 25.8143 161.452 26.477 161.452 27.233C161.452 27.9703 161.308 28.6283 161.018 29.207C160.738 29.7857 160.346 30.243 159.842 30.579C159.338 30.9057 158.764 31.069 158.12 31.069C157.7 31.069 157.294 30.9897 156.902 30.831C156.52 30.663 156.193 30.4483 155.922 30.187C155.661 29.9163 155.493 29.6223 155.418 29.305L155.894 29.109V34.023H153.808ZM157.644 29.291C157.999 29.291 158.312 29.207 158.582 29.039C158.853 28.8617 159.063 28.619 159.212 28.311C159.362 28.003 159.436 27.6437 159.436 27.233C159.436 26.8223 159.362 26.463 159.212 26.155C159.063 25.8377 158.853 25.595 158.582 25.427C158.321 25.2497 158.008 25.161 157.644 25.161C157.28 25.161 156.963 25.2497 156.692 25.427C156.422 25.595 156.207 25.8377 156.048 26.155C155.899 26.463 155.824 26.8223 155.824 27.233C155.824 27.6437 155.899 28.003 156.048 28.311C156.207 28.619 156.422 28.8617 156.692 29.039C156.963 29.207 157.28 29.291 157.644 29.291ZM167.988 30.943V21.647H170.074V30.943H167.988ZM166.63 25.371V23.523H171.558V25.371H166.63ZM176.229 31.083C175.473 31.083 174.797 30.9197 174.199 30.593C173.602 30.257 173.131 29.7997 172.785 29.221C172.44 28.6423 172.267 27.9797 172.267 27.233C172.267 26.4863 172.44 25.8237 172.785 25.245C173.131 24.6663 173.602 24.209 174.199 23.873C174.797 23.537 175.473 23.369 176.229 23.369C176.985 23.369 177.662 23.537 178.259 23.873C178.857 24.209 179.323 24.6663 179.659 25.245C180.005 25.8237 180.177 26.4863 180.177 27.233C180.177 27.9797 180.005 28.6423 179.659 29.221C179.323 29.7997 178.857 30.257 178.259 30.593C177.662 30.9197 176.985 31.083 176.229 31.083ZM176.229 29.291C176.584 29.291 176.901 29.2023 177.181 29.025C177.461 28.8383 177.681 28.591 177.839 28.283C177.998 27.975 178.077 27.625 178.077 27.233C178.077 26.8317 177.998 26.477 177.839 26.169C177.681 25.8517 177.461 25.6043 177.181 25.427C176.901 25.2497 176.584 25.161 176.229 25.161C175.875 25.161 175.553 25.2543 175.263 25.441C174.983 25.6183 174.764 25.861 174.605 26.169C174.447 26.477 174.372 26.8317 174.381 27.233C174.372 27.625 174.447 27.975 174.605 28.283C174.764 28.591 174.983 28.8383 175.263 29.025C175.553 29.2023 175.875 29.291 176.229 29.291ZM21.856 64.943L17.488 57.431V55.679H18.952C19.496 55.679 19.976 55.599 20.392 55.439C20.808 55.279 21.152 55.047 21.424 54.743C21.712 54.439 21.912 54.079 22.024 53.663H17.488V51.743H22.024C21.928 51.343 21.76 50.991 21.52 50.687C21.296 50.383 21 50.143 20.632 49.967C20.28 49.791 19.848 49.703 19.336 49.703H17.488V47.807H28.456V49.703H24.736C24.976 50.007 25.176 50.327 25.336 50.663C25.512 50.999 25.632 51.359 25.696 51.743H28.456V53.663H25.72C25.544 54.783 25.096 55.671 24.376 56.327C23.656 56.983 22.736 57.431 21.616 57.671L26.32 64.943H21.856ZM34.3887 64.943V50.015L34.7247 48.143H37.7487V64.943H34.3887ZM30.8847 53.639V50.447C31.2847 50.479 31.7167 50.383 32.1807 50.159C32.6447 49.919 33.1007 49.615 33.5487 49.247C33.9967 48.863 34.3887 48.487 34.7247 48.119L36.9567 50.279C36.3807 50.935 35.7647 51.535 35.1087 52.079C34.4527 52.607 33.7727 53.015 33.0687 53.303C32.3807 53.591 31.6527 53.703 30.8847 53.639ZM47.7526 65.231C46.3926 65.231 45.1846 64.863 44.1286 64.127C43.0726 63.375 42.2486 62.351 41.6566 61.055C41.0646 59.743 40.7686 58.239 40.7686 56.543C40.7686 54.847 41.0646 53.351 41.6566 52.055C42.2486 50.743 43.0646 49.719 44.1046 48.983C45.1606 48.231 46.3686 47.855 47.7286 47.855C49.1046 47.855 50.3206 48.231 51.3766 48.983C52.4326 49.719 53.2646 50.743 53.8726 52.055C54.4806 53.351 54.7846 54.847 54.7846 56.543C54.7846 58.239 54.4806 59.743 53.8726 61.055C53.2806 62.351 52.4566 63.375 51.4006 64.127C50.3446 64.863 49.1286 65.231 47.7526 65.231ZM47.7766 62.039C48.4646 62.039 49.0726 61.807 49.6006 61.343C50.1446 60.863 50.5686 60.215 50.8726 59.399C51.1926 58.567 51.3526 57.615 51.3526 56.543C51.3526 55.455 51.1926 54.503 50.8726 53.687C50.5686 52.855 50.1446 52.207 49.6006 51.743C49.0566 51.263 48.4326 51.023 47.7286 51.023C47.0406 51.023 46.4326 51.263 45.9046 51.743C45.3766 52.207 44.9606 52.855 44.6566 53.687C44.3526 54.503 44.2006 55.455 44.2006 56.543C44.2006 57.615 44.3526 58.567 44.6566 59.399C44.9606 60.215 45.3846 60.863 45.9286 61.343C46.4726 61.807 47.0886 62.039 47.7766 62.039ZM63.3619 65.231C62.0019 65.231 60.7939 64.863 59.7379 64.127C58.6819 63.375 57.8579 62.351 57.2659 61.055C56.6739 59.743 56.3779 58.239 56.3779 56.543C56.3779 54.847 56.6739 53.351 57.2659 52.055C57.8579 50.743 58.6739 49.719 59.7139 48.983C60.7699 48.231 61.9779 47.855 63.3379 47.855C64.7139 47.855 65.9299 48.231 66.9859 48.983C68.0419 49.719 68.8739 50.743 69.4819 52.055C70.0899 53.351 70.3939 54.847 70.3939 56.543C70.3939 58.239 70.0899 59.743 69.4819 61.055C68.8899 62.351 68.0659 63.375 67.0099 64.127C65.9539 64.863 64.7379 65.231 63.3619 65.231ZM63.3859 62.039C64.0739 62.039 64.6819 61.807 65.2099 61.343C65.7539 60.863 66.1779 60.215 66.4819 59.399C66.8019 58.567 66.9619 57.615 66.9619 56.543C66.9619 55.455 66.8019 54.503 66.4819 53.687C66.1779 52.855 65.7539 52.207 65.2099 51.743C64.6659 51.263 64.0419 51.023 63.3379 51.023C62.6499 51.023 62.0419 51.263 61.5139 51.743C60.9859 52.207 60.5699 52.855 60.2659 53.687C59.9619 54.503 59.8099 55.455 59.8099 56.543C59.8099 57.615 59.9619 58.567 60.2659 59.399C60.5699 60.215 60.9939 60.863 61.5379 61.343C62.0819 61.807 62.6979 62.039 63.3859 62.039ZM78.9713 65.231C77.6113 65.231 76.4033 64.863 75.3473 64.127C74.2913 63.375 73.4673 62.351 72.8753 61.055C72.2833 59.743 71.9873 58.239 71.9873 56.543C71.9873 54.847 72.2833 53.351 72.8753 52.055C73.4673 50.743 74.2833 49.719 75.3233 48.983C76.3793 48.231 77.5873 47.855 78.9473 47.855C80.3233 47.855 81.5393 48.231 82.5953 48.983C83.6513 49.719 84.4833 50.743 85.0913 52.055C85.6993 53.351 86.0033 54.847 86.0033 56.543C86.0033 58.239 85.6993 59.743 85.0913 61.055C84.4993 62.351 83.6753 63.375 82.6193 64.127C81.5633 64.863 80.3473 65.231 78.9713 65.231ZM78.9953 62.039C79.6833 62.039 80.2913 61.807 80.8193 61.343C81.3633 60.863 81.7873 60.215 82.0913 59.399C82.4113 58.567 82.5713 57.615 82.5713 56.543C82.5713 55.455 82.4113 54.503 82.0913 53.687C81.7873 52.855 81.3633 52.207 80.8193 51.743C80.2753 51.263 79.6513 51.023 78.9473 51.023C78.2593 51.023 77.6513 51.263 77.1233 51.743C76.5953 52.207 76.1793 52.855 75.8753 53.687C75.5713 54.503 75.4193 55.455 75.4193 56.543C75.4193 57.615 75.5713 58.567 75.8753 59.399C76.1793 60.215 76.6033 60.863 77.1473 61.343C77.6913 61.807 78.3073 62.039 78.9953 62.039ZM86.8047 66.903H114.805V38.903H86.8047V66.903Z" fill="#874B2C"/>
<path d="M20.27 93.083C19.5513 93.083 18.9073 92.9197 18.338 92.593C17.778 92.257 17.3347 91.8043 17.008 91.235C16.6813 90.6563 16.518 89.9983 16.518 89.261C16.518 88.5237 16.6813 87.8703 17.008 87.301C17.3347 86.7317 17.778 86.2837 18.338 85.957C18.9073 85.6303 19.5513 85.467 20.27 85.467C20.9887 85.467 21.628 85.6303 22.188 85.957C22.7573 86.2837 23.2007 86.7317 23.518 87.301C23.8447 87.8703 24.008 88.5237 24.008 89.261C24.008 89.9983 23.8447 90.6563 23.518 91.235C23.2007 91.8043 22.7573 92.257 22.188 92.593C21.628 92.9197 20.9887 93.083 20.27 93.083ZM20.27 92.005C20.7647 92.005 21.2033 91.8883 21.586 91.655C21.9687 91.4123 22.2673 91.0857 22.482 90.675C22.706 90.255 22.818 89.7837 22.818 89.261C22.818 88.7383 22.706 88.2717 22.482 87.861C22.2673 87.4503 21.9687 87.1283 21.586 86.895C21.2033 86.6617 20.7647 86.545 20.27 86.545C19.7753 86.545 19.332 86.6663 18.94 86.909C18.548 87.1423 18.24 87.4643 18.016 87.875C17.8013 88.2763 17.6987 88.7383 17.708 89.261C17.6987 89.7837 17.8013 90.255 18.016 90.675C18.24 91.0857 18.548 91.4123 18.94 91.655C19.332 91.8883 19.7753 92.005 20.27 92.005ZM26.1058 92.943V84.571C26.1058 84.1883 26.1898 83.8523 26.3578 83.563C26.5258 83.2737 26.7591 83.045 27.0578 82.877C27.3565 82.709 27.7065 82.625 28.1078 82.625C28.4065 82.625 28.6771 82.681 28.9198 82.793C29.1718 82.8957 29.3771 83.0403 29.5358 83.227L29.1298 84.123C28.9898 83.9737 28.8358 83.8663 28.6678 83.801C28.5091 83.7263 28.3551 83.689 28.2058 83.689C28.0005 83.689 27.8278 83.7263 27.6878 83.801C27.5478 83.8663 27.4405 83.9643 27.3658 84.095C27.3005 84.2257 27.2678 84.3843 27.2678 84.571V92.943H26.7218C26.6098 92.943 26.5025 92.943 26.3998 92.943C26.2971 92.943 26.1991 92.943 26.1058 92.943ZM24.8318 86.769V85.691H29.1018V86.769H24.8318ZM35.5293 92.943V83.717H36.6773V92.943H35.5293ZM33.9193 86.727V85.621H38.4833V86.727H33.9193ZM39.7717 92.943V85.621H40.9337L40.9617 87.665L40.8357 87.315C40.9383 86.979 41.1063 86.671 41.3397 86.391C41.573 86.111 41.8483 85.887 42.1657 85.719C42.4923 85.551 42.8377 85.467 43.2017 85.467C43.3603 85.467 43.5097 85.481 43.6497 85.509C43.7897 85.537 43.911 85.565 44.0137 85.593L43.6917 86.867C43.5703 86.8203 43.4443 86.783 43.3137 86.755C43.1923 86.727 43.071 86.713 42.9497 86.713C42.651 86.713 42.3757 86.769 42.1237 86.881C41.881 86.993 41.671 87.147 41.4937 87.343C41.3257 87.539 41.1903 87.763 41.0877 88.015C40.9943 88.2577 40.9477 88.5237 40.9477 88.813V92.943H39.7717ZM48.0793 93.083C47.3419 93.083 46.6886 92.9243 46.1193 92.607C45.5499 92.2803 45.1019 91.837 44.7753 91.277C44.4579 90.717 44.2993 90.0637 44.2993 89.317C44.2993 88.757 44.3879 88.2437 44.5653 87.777C44.7519 87.301 45.0039 86.8903 45.3213 86.545C45.6479 86.1997 46.0353 85.9337 46.4833 85.747C46.9406 85.551 47.4306 85.453 47.9533 85.453C48.4479 85.453 48.8959 85.5417 49.2973 85.719C49.7079 85.8963 50.0579 86.1437 50.3473 86.461C50.6459 86.7783 50.8699 87.1517 51.0193 87.581C51.1779 88.0103 51.2526 88.4817 51.2433 88.995L51.2293 89.513H45.1533L44.9573 88.561H50.3193L50.0673 88.813V88.477C50.0486 88.141 49.9506 87.8283 49.7733 87.539C49.5959 87.2403 49.3486 87.0023 49.0313 86.825C48.7233 86.6383 48.3639 86.545 47.9533 86.545C47.4399 86.545 46.9966 86.6523 46.6233 86.867C46.2499 87.0723 45.9606 87.3757 45.7553 87.777C45.5593 88.169 45.4613 88.659 45.4613 89.247C45.4613 89.807 45.5733 90.297 45.7973 90.717C46.0213 91.1277 46.3386 91.445 46.7493 91.669C47.1599 91.893 47.6453 92.005 48.2053 92.005C48.5693 92.005 48.9146 91.949 49.2413 91.837C49.5773 91.7157 49.9459 91.4823 50.3473 91.137L50.9353 91.977C50.7113 92.1823 50.4453 92.369 50.1373 92.537C49.8386 92.705 49.5119 92.8403 49.1573 92.943C48.8026 93.0363 48.4433 93.083 48.0793 93.083ZM52.7463 92.943V85.621H53.8943L53.9223 87.147L53.7403 87.245C53.8336 86.9277 54.0156 86.6337 54.2863 86.363C54.5569 86.0923 54.8789 85.8777 55.2523 85.719C55.6349 85.551 56.0269 85.467 56.4283 85.467C56.9696 85.467 57.4223 85.579 57.7863 85.803C58.1596 86.0177 58.4349 86.349 58.6123 86.797C58.7989 87.245 58.8923 87.8097 58.8923 88.491V92.943H57.7443V88.561C57.7443 88.0943 57.6789 87.7117 57.5483 87.413C57.4269 87.105 57.2403 86.881 56.9883 86.741C56.7363 86.5917 56.4236 86.5217 56.0503 86.531C55.7423 86.531 55.4576 86.5823 55.1963 86.685C54.9349 86.7877 54.7063 86.9323 54.5103 87.119C54.3236 87.2963 54.1743 87.5017 54.0623 87.735C53.9596 87.9683 53.9083 88.2203 53.9083 88.491V92.943H53.3343C53.2596 92.943 53.1709 92.943 53.0683 92.943C52.9749 92.943 52.8676 92.943 52.7463 92.943ZM63.891 93.083C63.219 93.083 62.6217 92.9197 62.099 92.593C61.5764 92.257 61.161 91.8043 60.853 91.235C60.545 90.6657 60.391 90.0123 60.391 89.275C60.391 88.5377 60.545 87.8843 60.853 87.315C61.161 86.7457 61.5764 86.2977 62.099 85.971C62.6217 85.635 63.2097 85.467 63.863 85.467C64.227 85.467 64.577 85.5277 64.913 85.649C65.2584 85.761 65.5664 85.9197 65.837 86.125C66.1077 86.321 66.327 86.545 66.495 86.797C66.663 87.0397 66.7657 87.2963 66.803 87.567L66.453 87.497V82.583H67.615V92.943H66.467L66.439 91.137L66.719 91.067C66.6817 91.319 66.579 91.5663 66.411 91.809C66.243 92.0423 66.0284 92.257 65.767 92.453C65.515 92.649 65.2257 92.803 64.899 92.915C64.5724 93.027 64.2364 93.083 63.891 93.083ZM64.045 92.047C64.521 92.047 64.941 91.9257 65.305 91.683C65.6784 91.4403 65.9724 91.1137 66.187 90.703C66.4017 90.283 66.509 89.807 66.509 89.275C66.509 88.743 66.4017 88.267 66.187 87.847C65.9817 87.427 65.6924 87.1003 65.319 86.867C64.9457 86.6243 64.521 86.503 64.045 86.503C63.569 86.503 63.1444 86.6243 62.771 86.867C62.3977 87.1003 62.1037 87.427 61.889 87.847C61.6837 88.267 61.581 88.743 61.581 89.275C61.581 89.807 61.6837 90.283 61.889 90.703C62.1037 91.1137 62.393 91.4403 62.757 91.683C63.1304 91.9257 63.5597 92.047 64.045 92.047ZM69.8974 92.943V85.621H71.0454V92.943H69.8974ZM70.4574 84.039C70.1867 84.039 69.9767 83.969 69.8274 83.829C69.6874 83.6797 69.6174 83.479 69.6174 83.227C69.6174 82.9937 69.692 82.8023 69.8414 82.653C69.9907 82.5037 70.196 82.429 70.4574 82.429C70.728 82.429 70.9334 82.499 71.0734 82.639C71.2227 82.779 71.2974 82.975 71.2974 83.227C71.2974 83.4697 71.2227 83.6657 71.0734 83.815C70.924 83.9643 70.7187 84.039 70.4574 84.039ZM73.3088 92.943V85.621H74.4568L74.4848 87.147L74.3028 87.245C74.3961 86.9277 74.5781 86.6337 74.8488 86.363C75.1194 86.0923 75.4414 85.8777 75.8148 85.719C76.1974 85.551 76.5894 85.467 76.9908 85.467C77.5321 85.467 77.9848 85.579 78.3488 85.803C78.7221 86.0177 78.9974 86.349 79.1748 86.797C79.3614 87.245 79.4548 87.8097 79.4548 88.491V92.943H78.3068V88.561C78.3068 88.0943 78.2414 87.7117 78.1108 87.413C77.9894 87.105 77.8028 86.881 77.5508 86.741C77.2988 86.5917 76.9861 86.5217 76.6128 86.531C76.3048 86.531 76.0201 86.5823 75.7588 86.685C75.4974 86.7877 75.2688 86.9323 75.0728 87.119C74.8861 87.2963 74.7368 87.5017 74.6248 87.735C74.5221 87.9683 74.4708 88.2203 74.4708 88.491V92.943H73.8968C73.8221 92.943 73.7334 92.943 73.6308 92.943C73.5374 92.943 73.4301 92.943 73.3088 92.943ZM84.6355 96.163C84.1035 96.163 83.5902 96.079 83.0955 95.911C82.6009 95.743 82.1949 95.533 81.8775 95.281L82.3255 94.343C82.5122 94.483 82.7269 94.609 82.9695 94.721C83.2215 94.8423 83.4922 94.9357 83.7815 95.001C84.0709 95.0663 84.3602 95.099 84.6495 95.099C85.1815 95.099 85.6342 95.001 86.0075 94.805C86.3809 94.6183 86.6609 94.3383 86.8475 93.965C87.0435 93.5917 87.1415 93.125 87.1415 92.565V91.165H87.3095C87.2349 91.501 87.0622 91.8183 86.7915 92.117C86.5209 92.4063 86.1849 92.6397 85.7835 92.817C85.3822 92.9943 84.9622 93.083 84.5235 93.083C83.8422 93.083 83.2309 92.9197 82.6895 92.593C82.1575 92.257 81.7329 91.8043 81.4155 91.235C81.1075 90.6657 80.9535 90.0123 80.9535 89.275C80.9535 88.5377 81.1075 87.8843 81.4155 87.315C81.7329 86.7457 82.1575 86.2977 82.6895 85.971C83.2309 85.635 83.8329 85.467 84.4955 85.467C84.7849 85.467 85.0602 85.5043 85.3215 85.579C85.5922 85.6443 85.8442 85.7423 86.0775 85.873C86.3109 86.0037 86.5162 86.153 86.6935 86.321C86.8802 86.4797 87.0342 86.6523 87.1555 86.839C87.2769 87.0257 87.3609 87.217 87.4075 87.413H87.1135L87.1415 85.621H88.3035V92.495C88.3035 93.083 88.2149 93.601 88.0375 94.049C87.8695 94.5063 87.6222 94.889 87.2955 95.197C86.9782 95.5143 86.5955 95.7523 86.1475 95.911C85.6995 96.079 85.1955 96.163 84.6355 96.163ZM84.6635 91.991C85.1489 91.991 85.5829 91.8743 85.9655 91.641C86.3482 91.4077 86.6469 91.0903 86.8615 90.689C87.0762 90.2783 87.1835 89.807 87.1835 89.275C87.1835 88.743 87.0715 88.2717 86.8475 87.861C86.6329 87.4503 86.3342 87.1283 85.9515 86.895C85.5782 86.6617 85.1489 86.545 84.6635 86.545C84.1782 86.545 83.7442 86.6663 83.3615 86.909C82.9789 87.1423 82.6802 87.4643 82.4655 87.875C82.2509 88.2857 82.1435 88.7523 82.1435 89.275C82.1435 89.7883 82.2509 90.255 82.4655 90.675C82.6802 91.0857 82.9742 91.4077 83.3475 91.641C83.7302 91.8743 84.1689 91.991 84.6635 91.991ZM97.9924 93.083C97.6564 93.083 97.3298 93.0317 97.0124 92.929C96.6951 92.817 96.4011 92.6723 96.1304 92.495C95.8691 92.3083 95.6451 92.0983 95.4584 91.865C95.2811 91.6317 95.1598 91.389 95.0944 91.137L95.4164 91.109L95.3884 92.915H94.2404V82.583H95.4024V87.357L95.1784 87.371C95.2438 87.119 95.3604 86.881 95.5284 86.657C95.7058 86.4237 95.9204 86.2183 96.1724 86.041C96.4338 85.8637 96.7138 85.7237 97.0124 85.621C97.3204 85.5183 97.6378 85.467 97.9644 85.467C98.6271 85.467 99.2151 85.6303 99.7284 85.957C100.242 86.2837 100.652 86.7363 100.96 87.315C101.268 87.8843 101.422 88.5377 101.422 89.275C101.422 90.003 101.273 90.6563 100.974 91.235C100.676 91.8043 100.265 92.257 99.7424 92.593C99.2291 92.9197 98.6458 93.083 97.9924 93.083ZM97.8104 92.005C98.2958 92.005 98.7204 91.8883 99.0844 91.655C99.4578 91.4123 99.7471 91.0857 99.9524 90.675C100.167 90.255 100.274 89.7837 100.274 89.261C100.274 88.7383 100.167 88.2717 99.9524 87.861C99.7471 87.4503 99.4578 87.1283 99.0844 86.895C98.7204 86.6617 98.2958 86.545 97.8104 86.545C97.3344 86.545 96.9098 86.6617 96.5364 86.895C96.1631 87.1283 95.8691 87.4503 95.6544 87.861C95.4398 88.2717 95.3324 88.7383 95.3324 89.261C95.3324 89.793 95.4398 90.2643 95.6544 90.675C95.8784 91.0857 96.1724 91.4123 96.5364 91.655C96.9098 91.8883 97.3344 92.005 97.8104 92.005ZM102.949 92.943V85.621H104.111L104.139 87.665L104.013 87.315C104.116 86.979 104.284 86.671 104.517 86.391C104.751 86.111 105.026 85.887 105.343 85.719C105.67 85.551 106.015 85.467 106.379 85.467C106.538 85.467 106.687 85.481 106.827 85.509C106.967 85.537 107.089 85.565 107.191 85.593L106.869 86.867C106.748 86.8203 106.622 86.783 106.491 86.755C106.37 86.727 106.249 86.713 106.127 86.713C105.829 86.713 105.553 86.769 105.301 86.881C105.059 86.993 104.849 87.147 104.671 87.343C104.503 87.539 104.368 87.763 104.265 88.015C104.172 88.2577 104.125 88.5237 104.125 88.813V92.943H102.949ZM110.823 93.083C110.198 93.083 109.628 92.9197 109.115 92.593C108.611 92.257 108.21 91.8043 107.911 91.235C107.612 90.6563 107.463 90.003 107.463 89.275C107.463 88.5377 107.612 87.8843 107.911 87.315C108.219 86.7363 108.634 86.2837 109.157 85.957C109.68 85.6303 110.263 85.467 110.907 85.467C111.28 85.467 111.63 85.523 111.957 85.635C112.284 85.747 112.573 85.9057 112.825 86.111C113.077 86.307 113.287 86.5403 113.455 86.811C113.623 87.0723 113.735 87.3523 113.791 87.651L113.483 87.525L113.511 85.621H114.673V92.943H113.497V91.165L113.805 90.997C113.74 91.277 113.614 91.543 113.427 91.795C113.25 92.0377 113.026 92.257 112.755 92.453C112.484 92.649 112.186 92.803 111.859 92.915C111.532 93.027 111.187 93.083 110.823 93.083ZM111.103 91.991C111.57 91.991 111.99 91.8743 112.363 91.641C112.736 91.4077 113.026 91.0857 113.231 90.675C113.446 90.2643 113.553 89.793 113.553 89.261C113.553 88.7383 113.446 88.2763 113.231 87.875C113.026 87.4643 112.736 87.1423 112.363 86.909C111.999 86.6757 111.579 86.559 111.103 86.559C110.627 86.559 110.202 86.6757 109.829 86.909C109.465 87.1423 109.176 87.4643 108.961 87.875C108.756 88.2763 108.653 88.7383 108.653 89.261C108.653 89.7837 108.756 90.255 108.961 90.675C109.176 91.0857 109.465 91.4077 109.829 91.641C110.193 91.8743 110.618 91.991 111.103 91.991ZM116.69 92.943V85.621H117.838L117.866 87.147L117.684 87.245C117.777 86.9277 117.959 86.6337 118.23 86.363C118.5 86.0923 118.822 85.8777 119.196 85.719C119.578 85.551 119.97 85.467 120.372 85.467C120.913 85.467 121.366 85.579 121.73 85.803C122.103 86.0177 122.378 86.349 122.556 86.797C122.742 87.245 122.836 87.8097 122.836 88.491V92.943H121.688V88.561C121.688 88.0943 121.622 87.7117 121.492 87.413C121.37 87.105 121.184 86.881 120.932 86.741C120.68 86.5917 120.367 86.5217 119.994 86.531C119.686 86.531 119.401 86.5823 119.14 86.685C118.878 86.7877 118.65 86.9323 118.454 87.119C118.267 87.2963 118.118 87.5017 118.006 87.735C117.903 87.9683 117.852 88.2203 117.852 88.491V92.943H117.278C117.203 92.943 117.114 92.943 117.012 92.943C116.918 92.943 116.811 92.943 116.69 92.943ZM127.834 93.083C127.162 93.083 126.565 92.9197 126.042 92.593C125.52 92.257 125.104 91.8043 124.796 91.235C124.488 90.6657 124.334 90.0123 124.334 89.275C124.334 88.5377 124.488 87.8843 124.796 87.315C125.104 86.7457 125.52 86.2977 126.042 85.971C126.565 85.635 127.153 85.467 127.806 85.467C128.17 85.467 128.52 85.5277 128.856 85.649C129.202 85.761 129.51 85.9197 129.78 86.125C130.051 86.321 130.27 86.545 130.438 86.797C130.606 87.0397 130.709 87.2963 130.746 87.567L130.396 87.497V82.583H131.558V92.943H130.41L130.382 91.137L130.662 91.067C130.625 91.319 130.522 91.5663 130.354 91.809C130.186 92.0423 129.972 92.257 129.71 92.453C129.458 92.649 129.169 92.803 128.842 92.915C128.516 93.027 128.18 93.083 127.834 93.083ZM127.988 92.047C128.464 92.047 128.884 91.9257 129.248 91.683C129.622 91.4403 129.916 91.1137 130.13 90.703C130.345 90.283 130.452 89.807 130.452 89.275C130.452 88.743 130.345 88.267 130.13 87.847C129.925 87.427 129.636 87.1003 129.262 86.867C128.889 86.6243 128.464 86.503 127.988 86.503C127.512 86.503 127.088 86.6243 126.714 86.867C126.341 87.1003 126.047 87.427 125.832 87.847C125.627 88.267 125.524 88.743 125.524 89.275C125.524 89.807 125.627 90.283 125.832 90.703C126.047 91.1137 126.336 91.4403 126.7 91.683C127.074 91.9257 127.503 92.047 127.988 92.047ZM135.983 93.083C135.357 93.083 134.797 92.971 134.303 92.747C133.808 92.5137 133.411 92.201 133.113 91.809L133.925 91.109C134.195 91.445 134.508 91.6923 134.863 91.851C135.217 92.0097 135.623 92.089 136.081 92.089C136.286 92.089 136.477 92.0657 136.655 92.019C136.841 91.963 136.995 91.8883 137.117 91.795C137.247 91.7017 137.345 91.5897 137.411 91.459C137.485 91.319 137.523 91.165 137.523 90.997C137.523 90.7077 137.401 90.4697 137.159 90.283C137.047 90.199 136.879 90.115 136.655 90.031C136.44 89.947 136.174 89.863 135.857 89.779C135.334 89.6297 134.9 89.4757 134.555 89.317C134.209 89.1583 133.939 88.9717 133.743 88.757C133.603 88.589 133.495 88.407 133.421 88.211C133.355 88.0057 133.323 87.7863 133.323 87.553C133.323 87.245 133.388 86.965 133.519 86.713C133.649 86.461 133.831 86.2417 134.065 86.055C134.298 85.8683 134.569 85.7237 134.877 85.621C135.194 85.5183 135.535 85.467 135.899 85.467C136.244 85.467 136.585 85.5137 136.921 85.607C137.257 85.7003 137.569 85.8357 137.859 86.013C138.148 86.1903 138.395 86.4003 138.601 86.643L137.915 87.399C137.728 87.2123 137.527 87.049 137.313 86.909C137.107 86.7597 136.888 86.6477 136.655 86.573C136.421 86.489 136.188 86.447 135.955 86.447C135.74 86.447 135.539 86.4703 135.353 86.517C135.175 86.5637 135.021 86.6337 134.891 86.727C134.76 86.8203 134.662 86.937 134.597 87.077C134.531 87.2077 134.499 87.3523 134.499 87.511C134.499 87.6417 134.527 87.763 134.583 87.875C134.639 87.987 134.718 88.085 134.821 88.169C134.942 88.2623 135.115 88.3557 135.339 88.449C135.572 88.533 135.861 88.6217 136.207 88.715C136.636 88.827 136.995 88.9437 137.285 89.065C137.574 89.1863 137.812 89.331 137.999 89.499C138.223 89.6763 138.386 89.8863 138.489 90.129C138.591 90.3717 138.643 90.6423 138.643 90.941C138.643 91.361 138.526 91.7343 138.293 92.061C138.059 92.3783 137.742 92.6303 137.341 92.817C136.939 92.9943 136.487 93.083 135.983 93.083Z" fill="#4B4E4B"/>
<rect x="227.034" width="99.9989" height="59.2586" rx="3.70366" transform="rotate(1.26841 227.034 0)" fill="url(#paint0_linear_5_592)"/>
<path d="M242.119 13.6427L241.703 15.0963L234.65 14.9402L235.061 13.4864L242.119 13.6427ZM238.274 21.6613L234.771 17.3003L234.806 15.9855L236.583 16.0249C236.98 16.0337 237.313 15.9674 237.582 15.826C237.852 15.6846 238.056 15.4892 238.195 15.2397C238.334 14.9902 238.409 14.7042 238.419 14.3817C238.427 13.8977 238.293 13.5001 238.02 13.1888C237.749 12.8741 237.295 12.7097 236.657 12.6956L234.7 12.6523L235.173 10.8157L236.698 10.8495C237.592 10.8693 238.334 11.0207 238.924 11.3039C239.518 11.5837 239.958 11.9741 240.245 12.4751C240.536 12.9762 240.676 13.5686 240.664 14.2524C240.647 14.859 240.534 15.3862 240.324 15.8341C240.117 16.2821 239.799 16.6521 239.368 16.9443C238.94 17.2365 238.387 17.4488 237.707 17.5811L237.622 17.6108L240.753 21.6215L240.751 21.7161L238.274 21.6613ZM242.189 10.971L241.762 12.4455L235.955 12.3169L236.382 10.8425L242.189 10.971ZM243.223 19.8765L243.263 18.083L247.917 11.0979L249.463 11.1321L249.408 13.6146L248.493 13.5944L245.559 18.018L245.557 18.1022L251.947 18.2437L251.907 20.0688L243.223 19.8765ZM248.351 21.8844L248.405 19.444L248.465 18.6507L248.632 11.1137L250.767 11.161L250.529 21.9326L248.351 21.8844ZM257.6 22.326C256.696 22.3025 255.922 22.0626 255.28 21.6063C254.641 21.1502 254.155 20.4992 253.823 19.6534C253.495 18.8077 253.345 17.7958 253.375 16.6177C253.401 15.4431 253.597 14.4458 253.962 13.626C254.331 12.8063 254.845 12.1879 255.503 11.771C256.165 11.3506 256.946 11.1504 257.847 11.1704C258.748 11.1903 259.519 11.4249 260.158 11.8741C260.8 12.3233 261.288 12.9655 261.62 13.8008C261.952 14.6326 262.104 15.6358 262.074 16.8103C262.048 17.992 261.85 18.9979 261.481 19.8282C261.116 20.6585 260.603 21.2874 259.945 21.7149C259.287 22.1423 258.505 22.346 257.6 22.326ZM257.642 20.4378C258.259 20.4515 258.759 20.1521 259.141 19.5396C259.523 18.9271 259.726 18.0002 259.75 16.7588C259.768 15.9419 259.699 15.2598 259.542 14.7125C259.39 14.1654 259.164 13.7517 258.865 13.4714C258.569 13.1913 258.216 13.0466 257.806 13.0376C257.192 13.024 256.695 13.3199 256.313 13.9254C255.931 14.5308 255.725 15.4454 255.694 16.6691C255.676 17.4966 255.743 18.1892 255.896 18.7468C256.052 19.301 256.279 19.72 256.578 20.0038C256.877 20.2841 257.232 20.4287 257.642 20.4378ZM267.797 22.5518C266.893 22.5282 266.119 22.2883 265.477 21.8321C264.838 21.3759 264.353 20.725 264.02 19.8792C263.692 19.0334 263.542 18.0216 263.572 16.8435C263.598 15.6688 263.794 14.6716 264.159 13.8518C264.528 13.032 265.042 12.4137 265.7 11.9968C266.362 11.5764 267.143 11.3762 268.044 11.3962C268.946 11.4161 269.716 11.6507 270.355 12.0998C270.997 12.5491 271.485 13.1913 271.817 14.0266C272.149 14.8584 272.301 15.8615 272.271 17.0361C272.245 18.2178 272.047 19.2237 271.678 20.054C271.313 20.8843 270.801 21.5132 270.142 21.9407C269.484 22.3681 268.702 22.5718 267.797 22.5518ZM267.839 20.6636C268.456 20.6772 268.956 20.3778 269.338 19.7654C269.72 19.1529 269.923 18.226 269.947 16.9846C269.965 16.1676 269.896 15.4855 269.739 14.9383C269.587 14.3912 269.361 13.9775 269.062 13.6972C268.766 13.417 268.413 13.2724 268.003 13.2633C267.389 13.2497 266.892 13.5457 266.51 14.1512C266.128 14.7566 265.922 15.6712 265.891 16.8948C265.873 17.7223 265.94 18.4149 266.093 18.9726C266.249 19.5268 266.476 19.9458 266.775 20.2296C267.074 20.5098 267.429 20.6545 267.839 20.6636Z" fill="white"/>
<path d="M240.49 27.9712C240.423 27.7013 240.32 27.4478 240.184 27.2106C240.047 26.9708 239.875 26.7604 239.669 26.5796C239.465 26.3961 239.227 26.2514 238.956 26.1454C238.687 26.0395 238.386 25.9829 238.052 25.9755C237.526 25.9638 237.052 26.0901 236.631 26.3544C236.209 26.6187 235.872 27.0059 235.619 27.516C235.368 28.0262 235.234 28.6441 235.218 29.37C235.202 30.0932 235.31 30.7151 235.54 31.2359C235.771 31.7567 236.093 32.1599 236.508 32.4453C236.925 32.7282 237.406 32.8756 237.95 32.8877C238.447 32.8987 238.889 32.798 239.275 32.5855C239.662 32.3731 239.966 32.0641 240.188 31.6585C240.413 31.2531 240.529 30.7676 240.536 30.202L240.771 30.2822L238.183 30.2249L238.198 29.5622L241.267 29.6302L241.252 30.2929C241.237 30.9819 241.084 31.5745 240.794 32.0706C240.504 32.5667 240.113 32.9461 239.621 33.2088C239.128 33.4716 238.566 33.5959 237.935 33.582C237.23 33.5664 236.617 33.3831 236.096 33.0321C235.575 32.6786 235.174 32.1882 234.894 31.561C234.615 30.9313 234.486 30.1957 234.504 29.3541C234.518 28.7204 234.615 28.1503 234.795 27.6438C234.974 27.1373 235.222 26.7061 235.538 26.35C235.856 25.9939 236.229 25.7246 236.657 25.542C237.084 25.3568 237.555 25.2698 238.068 25.2812C238.509 25.291 238.912 25.3696 239.274 25.5171C239.639 25.6646 239.958 25.8637 240.232 26.1145C240.508 26.3627 240.732 26.6478 240.903 26.97C241.078 27.2896 241.193 27.6289 241.248 27.988L240.49 27.9712ZM243.253 33.5892L243.387 27.5302L244.093 27.5458L243.959 33.6048L243.253 33.5892ZM243.769 26.4967C243.625 26.4935 243.502 26.4421 243.402 26.3425C243.301 26.2403 243.253 26.1195 243.256 25.9802C243.259 25.8408 243.313 25.7236 243.417 25.6285C243.522 25.5309 243.647 25.4837 243.792 25.4869C243.936 25.4901 244.059 25.5428 244.159 25.645C244.259 25.7445 244.308 25.864 244.305 26.0034C244.302 26.1428 244.248 26.2613 244.143 26.359C244.039 26.454 243.914 26.4999 243.769 26.4967ZM248.443 27.6421L248.43 28.2535L245.451 28.1876L245.465 27.5762L248.443 27.6421ZM246.262 33.6558L246.416 26.7092C246.423 26.3831 246.504 26.11 246.659 25.8898C246.816 25.6696 247.019 25.5044 247.266 25.3941C247.513 25.2838 247.773 25.2317 248.047 25.2377C248.231 25.2418 248.383 25.2609 248.503 25.2952C248.626 25.3268 248.723 25.3579 248.793 25.3884L248.574 25.9993C248.522 25.9823 248.458 25.9625 248.382 25.9398C248.307 25.917 248.211 25.9044 248.095 25.9018C247.79 25.8951 247.553 25.9753 247.383 26.1426C247.214 26.3099 247.126 26.5526 247.119 26.8708L246.964 33.6714L246.262 33.6558ZM252.231 27.726L252.218 28.3374L249.326 28.2734L249.34 27.662L252.231 27.726ZM250.275 26.2303L250.981 26.2459L250.85 32.1748C250.844 32.4273 250.883 32.6268 250.967 32.7734C251.051 32.9173 251.161 33.021 251.3 33.0846C251.438 33.1455 251.586 33.1778 251.743 33.1813C251.835 33.1833 251.914 33.1798 251.98 33.1707C252.046 33.159 252.105 33.1472 252.155 33.1351L252.291 33.7735C252.222 33.7983 252.137 33.8201 252.037 33.8389C251.936 33.8604 251.812 33.8695 251.665 33.8662C251.407 33.8605 251.16 33.7985 250.923 33.6801C250.689 33.5618 250.498 33.3892 250.351 33.1623C250.203 32.9353 250.133 32.6562 250.14 32.3249L250.275 26.2303ZM259.18 34.0681C258.638 34.0562 258.169 33.9103 257.773 33.6305C257.379 33.3508 257.077 32.9731 256.866 32.4975C256.656 32.0218 256.557 31.4829 256.571 30.8807C256.584 30.2732 256.708 29.7353 256.942 29.2669C257.179 28.7985 257.5 28.4346 257.905 28.1752C258.311 27.9132 258.778 27.7881 259.307 27.7998C259.712 27.8087 260.077 27.8957 260.402 28.0608C260.727 28.2232 260.993 28.4488 261.2 28.7376C261.41 29.0237 261.538 29.3555 261.585 29.7327L260.875 29.717C260.809 29.3735 260.637 29.0777 260.361 28.8295C260.088 28.5788 259.736 28.4486 259.305 28.4391C258.918 28.4305 258.574 28.5281 258.272 28.7319C257.97 28.9331 257.731 29.2185 257.554 29.5883C257.381 29.9554 257.288 30.3835 257.277 30.8727C257.266 31.3644 257.338 31.8015 257.493 32.1838C257.648 32.5634 257.87 32.863 258.16 33.0826C258.452 33.3022 258.797 33.4164 259.194 33.4252C259.462 33.4311 259.708 33.3865 259.931 33.2915C260.157 33.1939 260.347 33.0534 260.501 32.87C260.658 32.6867 260.765 32.4667 260.823 32.2102L261.533 32.2259C261.473 32.5903 261.335 32.9135 261.121 33.1955C260.91 33.475 260.638 33.6926 260.306 33.8484C259.976 34.0042 259.601 34.0775 259.18 34.0681ZM264.688 34.202C264.323 34.1939 263.99 34.1155 263.691 33.9668C263.392 33.8154 263.156 33.6023 262.983 33.3275C262.81 33.0501 262.728 32.7167 262.737 32.3275C262.743 32.0277 262.806 31.7765 262.923 31.5739C263.041 31.3713 263.205 31.2065 263.416 31.0796C263.626 30.9527 263.875 30.8543 264.16 30.7843C264.446 30.7143 264.76 30.6621 265.103 30.6276C265.443 30.593 265.731 30.5626 265.965 30.5362C266.203 30.5099 266.384 30.4639 266.509 30.3982C266.634 30.3326 266.698 30.2235 266.702 30.071L266.705 29.929C266.714 29.5161 266.598 29.1886 266.356 28.9464C266.117 28.7017 265.767 28.5743 265.307 28.5641C264.87 28.5544 264.512 28.6425 264.231 28.8284C263.953 29.0143 263.756 29.2362 263.64 29.4941L262.979 29.2387C263.123 28.9104 263.318 28.6503 263.564 28.4584C263.811 28.2639 264.085 28.1266 264.387 28.0464C264.688 27.9636 264.993 27.9257 265.301 27.9325C265.532 27.9376 265.772 27.9732 266.021 28.0392C266.272 28.1053 266.504 28.2156 266.716 28.3703C266.928 28.5224 267.099 28.7327 267.227 29.0012C267.355 29.2672 267.415 29.6027 267.406 30.0077L267.315 34.122L266.613 34.1064L266.634 33.1479L266.59 33.1469C266.502 33.3239 266.373 33.4947 266.204 33.6593C266.035 33.8239 265.824 33.9574 265.572 34.0597C265.319 34.162 265.025 34.2094 264.688 34.202ZM264.797 33.5611C265.171 33.5693 265.496 33.4937 265.773 33.334C266.05 33.1744 266.266 32.9595 266.419 32.6892C266.575 32.4164 266.657 32.1144 266.664 31.783L266.683 30.9073C266.63 30.9561 266.541 30.9988 266.416 31.0355C266.294 31.0723 266.153 31.1047 265.992 31.1327C265.833 31.1581 265.675 31.1796 265.517 31.1972C265.358 31.2147 265.216 31.23 265.089 31.243C264.747 31.2775 264.453 31.3368 264.209 31.4208C263.965 31.5049 263.777 31.6244 263.645 31.7793C263.513 31.9316 263.444 32.13 263.438 32.3746C263.43 32.7428 263.555 33.031 263.814 33.2393C264.072 33.445 264.4 33.5523 264.797 33.5611ZM269.182 34.1633L269.317 28.1043L269.999 28.1194L269.978 29.0503L270.03 29.0515C270.157 28.7491 270.373 28.5079 270.677 28.3278C270.984 28.1451 271.328 28.058 271.709 28.0665C271.767 28.0678 271.831 28.0705 271.902 28.0747C271.973 28.0789 272.032 28.0828 272.08 28.0865L272.064 28.8005C272.032 28.7946 271.977 28.7854 271.899 28.7732C271.82 28.7609 271.735 28.7538 271.643 28.7517C271.327 28.7447 271.044 28.8056 270.794 28.9342C270.547 29.0603 270.349 29.2388 270.202 29.4697C270.055 29.7006 269.978 29.9659 269.971 30.2657L269.885 34.1789L269.182 34.1633ZM275.136 34.4214C274.639 34.4104 274.207 34.2693 273.839 33.9981C273.472 33.7268 273.188 33.3535 272.988 32.8781C272.791 32.4028 272.699 31.8522 272.713 31.2263C272.726 30.603 272.842 30.0596 273.061 29.5961C273.281 29.13 273.583 28.771 273.964 28.519C274.346 28.2643 274.787 28.1425 275.287 28.1536C275.655 28.1617 275.96 28.2343 276.202 28.3712C276.443 28.5054 276.636 28.6702 276.779 28.8654C276.922 29.0607 277.032 29.2499 277.109 29.4332L277.173 29.4346L277.243 26.2591L277.949 26.2747L277.77 34.3535L277.084 34.3383L277.109 33.214L277.026 33.2122C276.94 33.3945 276.82 33.5813 276.666 33.7726C276.512 33.9612 276.31 34.1185 276.06 34.2446C275.812 34.3706 275.504 34.4296 275.136 34.4214ZM275.233 33.7803C275.625 33.789 275.961 33.6899 276.242 33.483C276.523 33.2734 276.74 32.9822 276.893 32.6094C277.049 32.2339 277.132 31.8017 277.143 31.3125C277.154 30.8286 277.091 30.3997 276.954 30.0257C276.818 29.6491 276.614 29.3525 276.342 29.136C276.071 28.9169 275.738 28.8029 275.344 28.7942C274.939 28.7852 274.594 28.8881 274.311 29.1028C274.03 29.315 273.813 29.6062 273.66 29.9764C273.51 30.3467 273.429 30.7646 273.419 31.2301C273.409 31.7008 273.472 32.1271 273.608 32.509C273.744 32.8909 273.948 33.1967 274.219 33.4263C274.493 33.6534 274.831 33.7714 275.233 33.7803Z" fill="white" fill-opacity="0.6"/>
<path d="M314.75 50.266L315.14 53.8067L317.73 54.2089L315.126 54.4128L314.58 57.9327L314.19 54.3921L311.597 54.0731L314.203 53.7859L314.75 50.266Z" fill="#FFBF35" fill-opacity="0.4"/>
<path d="M314.39 31.8489L315.1 36.8095L319.636 37.3928L315.081 37.658L314.152 42.5823L313.442 37.6217L308.903 37.1551L313.461 36.7732L314.39 31.8489Z" fill="#FFBF35" fill-opacity="0.2"/>
<path d="M320.429 18.9427L320.784 21.423L323.052 21.7146L320.774 21.8473L320.31 24.3094L319.955 21.8291L317.685 21.5958L319.964 21.4048L320.429 18.9427Z" fill="#FFBF35" fill-opacity="0.1"/>
<path d="M275.982 51.7085L276.337 54.1887L278.605 54.4804L276.327 54.613L275.863 57.0751L275.508 54.5949L273.238 54.3616L275.517 54.1706L275.982 51.7085Z" fill="#FFBF35" fill-opacity="0.1"/>
<path d="M306.153 40.1038L306.992 47.1864L312.498 47.9981L306.965 48.3986L305.814 55.4371L304.975 48.3545L299.465 47.7095L305.002 47.1423L306.153 40.1038Z" fill="#FFBF35" fill-opacity="0.4"/>
<path d="M284.517 47.2954L285.075 51.193L288.639 51.6513L285.06 51.8597L284.33 55.7287L283.772 51.8312L280.206 51.4645L283.787 51.1644L284.517 47.2954Z" fill="#FFBF35" fill-opacity="0.2"/>
<rect x="212" y="39.1538" width="121.664" height="72.0972" rx="4.50608" transform="rotate(-2.83101 212 39.1538)" fill="url(#paint1_linear_5_592)"/>
<path d="M231.54 55.3638L231.161 57.1641L222.589 57.5881L222.961 55.7881L231.54 55.3638ZM227.571 65.4292L222.941 60.4416L222.869 58.8431L225.029 58.7363C225.511 58.7124 225.909 58.603 226.224 58.408C226.539 58.213 226.77 57.958 226.917 57.6432C227.064 57.3283 227.13 56.9747 227.114 56.5824C227.081 55.9945 226.885 55.5236 226.526 55.1696C226.17 54.8112 225.605 54.6512 224.829 54.6896L222.451 54.8072L222.864 52.5374L224.718 52.4457C225.805 52.3919 226.719 52.5112 227.46 52.8036C228.204 53.0914 228.773 53.5269 229.165 54.1099C229.561 54.6927 229.782 55.3995 229.827 56.2304C229.859 56.9679 229.768 57.6176 229.552 58.1794C229.34 58.741 228.986 59.2178 228.488 59.6098C227.995 60.0016 227.341 60.3074 226.528 60.527L226.427 60.5704L230.577 65.1652L230.582 65.2803L227.571 65.4292ZM231.392 52.1156L231.002 53.9421L223.944 54.2911L224.335 52.4646L231.392 52.1156ZM238.525 65.067C237.621 65.1117 236.807 64.9853 236.083 64.6878C235.364 64.3902 234.783 63.9596 234.341 63.3962C233.898 62.8328 233.65 62.1743 233.596 61.4208L236.281 61.288C236.336 61.7937 236.569 62.1944 236.981 62.4902C237.393 62.786 237.872 62.9204 238.417 62.8934C238.852 62.8719 239.231 62.7571 239.554 62.5488C239.881 62.3361 240.129 62.0525 240.3 61.698C240.474 61.3391 240.55 60.9337 240.528 60.482C240.505 60.0217 240.387 59.6216 240.174 59.2819C239.965 58.9419 239.685 58.6823 239.334 58.5031C238.984 58.3239 238.589 58.243 238.15 58.2605C237.766 58.2794 237.397 58.3767 237.043 58.5523C236.692 58.7277 236.424 58.9568 236.237 59.2394L233.754 58.92L234.033 51.9851L242.036 51.5893L242.148 53.8524L236.427 54.1353L236.25 57.4316L236.327 57.4278C236.541 57.0925 236.875 56.8068 237.329 56.5708C237.783 56.3347 238.298 56.2024 238.873 56.174C239.662 56.135 240.374 56.2856 241.01 56.6258C241.647 56.9661 242.16 57.4512 242.55 58.0813C242.94 58.7072 243.153 59.44 243.19 60.2798C243.238 61.1618 243.073 61.9561 242.693 62.6627C242.318 63.3649 241.771 63.9302 241.053 64.3588C240.339 64.7829 239.496 65.0189 238.525 65.067ZM250.485 64.5845C249.385 64.6346 248.425 64.4108 247.606 63.913C246.791 63.415 246.145 62.6672 245.669 61.6697C245.196 60.6719 244.927 59.457 244.86 58.0247C244.79 56.597 244.941 55.3698 245.313 54.3431C245.689 53.3162 246.259 52.5212 247.021 51.958C247.788 51.3903 248.719 51.0794 249.814 51.0252C250.909 50.9711 251.864 51.1887 252.679 51.6782C253.498 52.1675 254.145 52.9045 254.621 53.8892C255.097 54.8697 255.368 56.0739 255.434 57.5019C255.505 58.9381 255.353 60.1761 254.977 61.2158C254.606 62.2552 254.039 63.063 253.277 63.639C252.515 64.2149 251.584 64.5301 250.485 64.5845ZM250.371 62.2895C251.121 62.2524 251.701 61.8456 252.112 61.0691C252.522 60.2926 252.687 59.1501 252.609 57.6416C252.56 56.6486 252.416 55.8268 252.179 55.1763C251.946 54.5256 251.636 54.0433 251.249 53.7292C250.866 53.4149 250.425 53.27 249.926 53.2947C249.181 53.3316 248.602 53.734 248.192 54.502C247.781 55.2699 247.61 56.3977 247.68 57.8853C247.729 58.8911 247.871 59.7258 248.105 60.3893C248.342 61.0483 248.655 61.537 249.042 61.8553C249.43 62.1694 249.873 62.3141 250.371 62.2895ZM262.879 63.9716C261.779 64.0217 260.82 63.7979 260 63.3001C259.185 62.8021 258.539 62.0543 258.063 61.0568C257.591 60.059 257.321 58.8441 257.255 57.4118C257.184 55.9841 257.335 54.7569 257.707 53.7302C258.083 52.7033 258.653 51.9083 259.415 51.3451C260.182 50.7774 261.113 50.4665 262.208 50.4123C263.304 50.3582 264.259 50.5758 265.073 51.0653C265.892 51.5546 266.539 52.2916 267.015 53.2763C267.491 54.2568 267.762 55.461 267.828 56.889C267.899 58.3252 267.747 59.5632 267.371 60.6029C267 61.6423 266.433 62.4501 265.671 63.026C264.909 63.602 263.978 63.9172 262.879 63.9716ZM262.765 61.6766C263.515 61.6395 264.096 61.2327 264.506 60.4562C264.916 59.6797 265.082 58.5372 265.003 57.0287C264.954 56.0357 264.811 55.2139 264.573 54.5634C264.34 53.9127 264.03 53.4304 263.643 53.1163C263.26 52.802 262.819 52.6571 262.321 52.6818C261.575 52.7187 260.996 53.1211 260.586 53.8891C260.175 54.657 260.005 55.7848 260.074 57.2724C260.124 58.2782 260.265 59.1129 260.499 59.7764C260.737 60.4354 261.049 60.924 261.437 61.2424C261.824 61.5565 262.267 61.7012 262.765 61.6766Z" fill="white"/>
<path d="M230.743 71.5451C230.637 71.2235 230.491 70.9247 230.305 70.6487C230.118 70.3696 229.891 70.1293 229.625 69.9278C229.362 69.7229 229.061 69.5679 228.722 69.4629C228.387 69.3577 228.016 69.3152 227.61 69.3353C226.971 69.3669 226.407 69.5614 225.919 69.9188C225.43 70.2762 225.054 70.7754 224.791 71.4164C224.531 72.0573 224.423 72.8189 224.467 73.7011C224.51 74.5801 224.694 75.3256 225.019 75.9376C225.345 76.5495 225.771 77.0107 226.299 77.321C226.83 77.628 227.427 77.7651 228.088 77.7324C228.692 77.7025 229.219 77.5419 229.67 77.2505C230.12 76.959 230.462 76.5576 230.696 76.0462C230.934 75.5346 231.032 74.9353 230.992 74.2484L231.284 74.3252L228.139 74.4808L228.099 73.6753L231.829 73.4908L231.869 74.2963C231.911 75.1338 231.777 75.8662 231.468 76.4934C231.16 77.1207 230.718 77.6152 230.143 77.9768C229.568 78.3385 228.897 78.5383 228.13 78.5763C227.273 78.6186 226.514 78.4495 225.851 78.0689C225.188 77.6852 224.658 77.125 224.263 76.3883C223.871 75.6483 223.649 74.7669 223.599 73.744C223.561 72.9737 223.629 72.2734 223.803 71.6432C223.976 71.0129 224.24 70.468 224.592 70.0084C224.947 69.5487 225.376 69.1894 225.879 68.9306C226.382 68.6686 226.945 68.5222 227.569 68.4914C228.106 68.4648 228.601 68.5253 229.053 68.6727C229.509 68.82 229.914 69.0339 230.267 69.3144C230.624 69.5916 230.92 69.9182 231.157 70.2942C231.396 70.6668 231.565 71.0686 231.664 71.4996L230.743 71.5451ZM234.584 78.1225L234.22 70.7579L235.078 70.7155L235.442 78.0801L234.584 78.1225ZM234.594 69.4706C234.418 69.4793 234.265 69.4276 234.134 69.3155C234.003 69.2002 233.934 69.0578 233.926 68.8884C233.917 68.719 233.972 68.5721 234.091 68.4476C234.21 68.32 234.357 68.2518 234.533 68.2431C234.709 68.2344 234.862 68.2877 234.993 68.403C235.123 68.5152 235.193 68.6559 235.201 68.8253C235.209 68.9947 235.154 69.1433 235.036 69.2709C234.917 69.3953 234.769 69.4619 234.594 69.4706ZM240.365 70.454L240.402 71.1972L236.782 71.3762L236.745 70.633L240.365 70.454ZM238.241 77.9417L237.824 69.4983C237.804 69.1019 237.879 68.7634 238.047 68.4827C238.219 68.2018 238.45 67.9837 238.741 67.8284C239.031 67.673 239.342 67.5871 239.675 67.5707C239.899 67.5596 240.085 67.5697 240.234 67.6007C240.386 67.6285 240.506 67.6578 240.594 67.6887L240.382 68.449C240.317 68.433 240.237 68.4145 240.143 68.3935C240.049 68.3725 239.932 68.3655 239.791 68.3724C239.421 68.3908 239.14 68.5088 238.949 68.7265C238.758 68.9442 238.672 69.2465 238.691 69.6333L239.095 77.8995L238.241 77.9417ZM244.969 70.2264L245.006 70.9695L241.492 71.1433L241.455 70.4002L244.969 70.2264ZM242.466 68.5814L243.324 68.539L243.68 75.7453C243.696 76.0522 243.76 76.2909 243.874 76.4615C243.988 76.6289 244.132 76.7452 244.305 76.8103C244.478 76.8723 244.66 76.8985 244.852 76.889C244.964 76.8835 245.059 76.8723 245.139 76.8556C245.218 76.8357 245.287 76.8162 245.347 76.7972L245.568 77.5601C245.486 77.5962 245.385 77.63 245.265 77.6616C245.145 77.6964 244.996 77.7182 244.817 77.7271C244.503 77.7426 244.198 77.6888 243.9 77.5657C243.606 77.4425 243.359 77.2496 243.16 76.9871C242.961 76.7245 242.852 76.3919 242.832 75.9892L242.466 68.5814ZM253.954 77.3185C253.295 77.351 252.713 77.2148 252.208 76.9098C251.706 76.6045 251.306 76.1725 251.01 75.6136C250.713 75.0547 250.546 74.4093 250.51 73.6773C250.474 72.9389 250.577 72.2754 250.82 71.6866C251.067 71.0976 251.425 70.6281 251.894 70.278C252.364 69.9248 252.92 69.7323 253.563 69.7005C254.055 69.6761 254.505 69.75 254.914 69.922C255.323 70.0909 255.666 70.3415 255.942 70.6739C256.221 71.0029 256.405 71.3944 256.495 71.8481L255.632 71.8908C255.522 71.4797 255.288 71.1356 254.932 70.8584C254.578 70.5779 254.14 70.4506 253.615 70.4765C253.145 70.4997 252.736 70.6482 252.388 70.9217C252.039 71.1921 251.774 71.5593 251.591 72.0233C251.412 72.484 251.337 73.0116 251.367 73.6061C251.396 74.2038 251.522 74.7279 251.743 75.1784C251.963 75.6257 252.259 75.97 252.63 76.2112C253.004 76.4522 253.432 76.5608 253.915 76.537C254.241 76.5208 254.535 76.4454 254.798 76.3107C255.063 76.1726 255.282 75.9855 255.453 75.7496C255.627 75.5135 255.738 75.2372 255.786 74.9208L256.65 74.8781C256.608 75.3256 256.469 75.7298 256.234 76.0907C256.001 76.4482 255.69 76.7359 255.301 76.9539C254.914 77.1717 254.465 77.2932 253.954 77.3185ZM260.65 77.0018C260.206 77.0237 259.796 76.9575 259.419 76.8031C259.043 76.6454 258.738 76.4074 258.505 76.0889C258.271 75.7672 258.142 75.3698 258.119 74.8968C258.101 74.5324 258.154 74.2221 258.279 73.966C258.405 73.7099 258.589 73.4957 258.834 73.3234C259.079 73.1511 259.371 73.01 259.712 72.9002C260.053 72.7905 260.429 72.6998 260.842 72.6281C261.252 72.5565 261.598 72.4945 261.881 72.4421C262.167 72.3895 262.383 72.318 262.529 72.2274C262.675 72.1369 262.743 71.9989 262.734 71.8135L262.726 71.6409C262.701 71.1391 262.531 70.7518 262.216 70.4789C261.905 70.2028 261.469 70.0785 260.91 70.1062C260.379 70.1324 259.952 70.2705 259.628 70.5204C259.307 70.7702 259.087 71.0567 258.969 71.3797L258.144 71.1273C258.29 70.7164 258.504 70.3837 258.787 70.1295C259.069 69.872 259.389 69.6815 259.748 69.558C260.108 69.4313 260.474 69.3587 260.848 69.3402C261.129 69.3263 261.424 69.3486 261.731 69.4071C262.041 69.4655 262.332 69.5792 262.603 69.7485C262.874 69.9145 263.099 70.1549 263.278 70.4697C263.457 70.7813 263.559 71.1832 263.583 71.6755L263.83 76.6763L262.977 76.7185L262.919 75.5534L262.866 75.556C262.775 75.7784 262.634 75.9969 262.442 76.2114C262.251 76.4259 262.007 76.6062 261.71 76.7523C261.412 76.8984 261.059 76.9815 260.65 77.0018ZM260.727 76.2145C261.18 76.1921 261.569 76.072 261.891 75.8541C262.214 75.6363 262.456 75.3568 262.619 75.0155C262.784 74.6709 262.857 74.2972 262.837 73.8944L262.785 72.83C262.724 72.8939 262.619 72.9535 262.471 73.0089C262.327 73.0641 262.158 73.1157 261.965 73.1637C261.775 73.2084 261.584 73.2482 261.394 73.2833C261.203 73.3183 261.032 73.3493 260.879 73.376C260.466 73.4477 260.115 73.5452 259.827 73.6684C259.538 73.7916 259.32 73.953 259.173 74.1525C259.026 74.3489 258.959 74.5957 258.974 74.8929C258.996 75.3404 259.173 75.6793 259.505 75.9097C259.837 76.1368 260.244 76.2384 260.727 76.2145ZM266.101 76.564L265.736 69.1994L266.566 69.1584L266.622 70.2899L266.684 70.2869C266.813 69.9088 267.054 69.5973 267.407 69.3523C267.763 69.104 268.173 68.9684 268.636 68.9455C268.707 68.942 268.785 68.9397 268.872 68.9386C268.958 68.9376 269.03 68.9372 269.088 68.9376L269.131 69.8054C269.092 69.8009 269.024 69.7946 268.928 69.7866C268.831 69.7785 268.727 69.7773 268.615 69.7828C268.232 69.8018 267.894 69.9002 267.601 70.0781C267.312 70.2526 267.088 70.4864 266.93 70.7794C266.771 71.0724 266.701 71.4011 266.719 71.7655L266.954 76.5218L266.101 76.564ZM273.348 76.3594C272.744 76.3893 272.207 76.2556 271.737 75.9584C271.268 75.6612 270.891 75.2329 270.607 74.6734C270.326 74.1137 270.167 73.4535 270.129 72.6927C270.092 71.9352 270.185 71.2657 270.409 70.6842C270.637 70.0994 270.971 69.6375 271.413 69.2984C271.854 68.9562 272.378 68.77 272.986 68.74C273.433 68.7179 273.809 68.7794 274.115 68.9245C274.42 69.0664 274.667 69.2496 274.858 69.4741C275.049 69.6986 275.199 69.9187 275.309 70.1343L275.386 70.1305L275.195 66.2708L276.053 66.2284L276.538 76.0478L275.704 76.0891L275.637 74.7226L275.536 74.7276C275.448 74.9563 275.319 75.1933 275.148 75.4389C274.977 75.6812 274.746 75.8898 274.453 76.0644C274.164 76.239 273.796 76.3373 273.348 76.3594ZM273.41 75.5729C273.886 75.5494 274.286 75.3998 274.609 75.1243C274.931 74.8456 275.169 74.4734 275.322 74.0076C275.479 73.5384 275.542 73.0066 275.513 72.4121C275.484 71.8239 275.37 71.3089 275.172 70.8669C274.974 70.4217 274.7 70.0795 274.352 69.8404C274.004 69.5981 273.59 69.4888 273.11 69.5125C272.618 69.5368 272.209 69.6916 271.884 69.9769C271.561 70.2588 271.323 70.631 271.17 71.0936C271.02 71.556 270.959 72.0701 270.987 72.6359C271.015 73.2081 271.128 73.7199 271.327 74.1715C271.525 74.6231 271.799 74.9765 272.148 75.2316C272.5 75.4833 272.921 75.5971 273.41 75.5729Z" fill="white" fill-opacity="0.6"/>
<path d="M322.818 92.5247L323.599 96.7874L326.778 97.0503L323.635 97.5242L323.278 101.843L322.497 97.5805L319.323 97.4189L322.46 96.8438L322.818 92.5247Z" fill="#FFBF35" fill-opacity="0.4"/>
<path d="M320.78 70.2059L322.073 76.1639L327.629 76.4772L322.124 77.1953L321.425 83.2519L320.131 77.2939L314.583 77.1224L320.08 76.2625L320.78 70.2059Z" fill="#FFBF35" fill-opacity="0.2"/>
<path d="M326.985 54.0189L327.632 56.9979L330.41 57.1546L327.657 57.5136L327.308 60.5419L326.661 57.5629L323.887 57.4771L326.636 57.0472L326.985 54.0189Z" fill="#FFBF35" fill-opacity="0.1"/>
<path d="M275.897 97.6473L276.543 100.626L279.321 100.783L276.569 101.142L276.219 104.17L275.573 101.191L272.798 101.106L275.547 100.676L275.897 97.6473Z" fill="#FFBF35" fill-opacity="0.1"/>
<path d="M311.502 80.9403L313.136 89.4624L319.889 89.9686L313.209 90.9359L312.423 99.5776L310.789 91.0555L304.047 90.7519L310.716 89.582L311.502 80.9403Z" fill="#FFBF35" fill-opacity="0.4"/>
<path d="M285.871 91.5493L286.887 96.2306L291.252 96.4768L286.927 97.041L286.378 101.8L285.361 97.1184L281.002 96.9837L285.321 96.308L285.871 91.5493Z" fill="#FFBF35" fill-opacity="0.2"/>
<defs>
<linearGradient id="paint0_linear_5_592" x1="226.885" y1="29.9074" x2="327.343" y2="29.9074" gradientUnits="userSpaceOnUse">
<stop stop-color="#EA7611"/>
<stop offset="1" stop-color="#F25B1B"/>
</linearGradient>
<linearGradient id="paint1_linear_5_592" x1="211.818" y1="75.5408" x2="334.041" y2="75.5408" gradientUnits="userSpaceOnUse">
<stop stop-color="#196CD9"/>
<stop offset="1" stop-color="#0D3973"/>
</linearGradient>
</defs>
</svg>
