<svg width="24" height="24" viewBox="0 0 24 24" fill="none" xmlns="http://www.w3.org/2000/svg">
<mask id="mask0_571_230" style="mask-type:alpha" maskUnits="userSpaceOnUse" x="0" y="0" width="24" height="24">
<rect width="24" height="24" fill="#D9D9D9"/>
</mask>
<g mask="url(#mask0_571_230)">
<path d="M12.7885 20.1538L8.40385 15.7692L9.46154 14.7115L12.7885 18.0385L21.2885 9.53846L22.3462 10.5962L12.7885 20.1538ZM6.11539 13.0385C5.46154 13.0385 4.90385 12.8077 4.44231 12.3462C3.98077 11.8846 3.75 11.3269 3.75 10.6731V6.11539C3.75 5.46154 3.98077 4.90385 4.44231 4.44231C4.90385 3.98077 5.46154 3.75 6.11539 3.75H10.6731C11.3269 3.75 11.8846 3.98077 12.3462 4.44231C12.8077 4.90385 13.0385 5.46154 13.0385 6.11539V10.6731C13.0385 11.3269 12.8077 11.8846 12.3462 12.3462C11.8846 12.8077 11.3269 13.0385 10.6731 13.0385H6.11539ZM6.11539 11.5385H10.6731C10.9038 11.5385 11.0962 11.4615 11.25 11.3077C11.4038 11.1538 11.4808 10.9615 11.4808 10.7308V6.05769C11.4808 5.82692 11.4038 5.63462 11.25 5.48077C11.0962 5.32692 10.9038 5.25 10.6731 5.25H6.05769C5.82692 5.25 5.63462 5.32692 5.48077 5.48077C5.32692 5.63462 5.25 5.82692 5.25 6.05769V10.7308C5.25 10.9615 5.32692 11.1538 5.48077 11.3077C5.63462 11.4615 5.82692 11.5385 6.05769 11.5385H6.11539Z" fill="#8A8E8A"/>
</g>
</svg>
