<svg width="24" height="24" viewBox="0 0 24 24" fill="none" xmlns="http://www.w3.org/2000/svg">
<path d="M14.9096 9.9734L9.97338 14.9095C9.85544 15.0234 9.69749 15.0865 9.53353 15.085C9.36958 15.0836 9.21274 15.0179 9.0968 14.9019C8.98087 14.786 8.9151 14.6292 8.91368 14.4652C8.91225 14.3013 8.97528 14.1433 9.08919 14.0254L14.0254 9.08922C14.1433 8.97532 14.3013 8.91229 14.4652 8.91372C14.6292 8.91514 14.786 8.9809 14.902 9.09684C15.0179 9.21277 15.0837 9.36961 15.0851 9.53356C15.0865 9.69751 15.0235 9.85547 14.9096 9.9734ZM10.2785 10.2785C10.4149 10.1423 10.5078 9.96876 10.5455 9.77975C10.5832 9.59073 10.564 9.39479 10.4903 9.2167C10.4165 9.03862 10.2917 8.8864 10.1314 8.7793C9.9712 8.67219 9.7828 8.61503 9.59006 8.61503C9.39732 8.61503 9.20892 8.67219 9.04868 8.7793C8.88844 8.8864 8.76357 9.03862 8.68987 9.2167C8.61617 9.39479 8.59694 9.59073 8.63463 9.77975C8.67232 9.96876 8.76522 10.1423 8.90159 10.2785C9.08426 10.461 9.33188 10.5635 9.59006 10.5635C9.84824 10.5635 10.0959 10.461 10.2785 10.2785ZM13.7202 13.719C13.5839 13.8552 13.491 14.0288 13.4533 14.2178C13.4156 14.4068 13.4348 14.6027 13.5085 14.7808C13.5822 14.9589 13.7071 15.1111 13.8673 15.2182C14.0276 15.3253 14.216 15.3825 14.4087 15.3825C14.6015 15.3825 14.7899 15.3253 14.9501 15.2182C15.1103 15.1111 15.2352 14.9589 15.3089 14.7808C15.3826 14.6027 15.4018 14.4068 15.3641 14.2178C15.3265 14.0288 15.2336 13.8552 15.0972 13.719C14.9145 13.5365 14.6669 13.434 14.4087 13.434C14.1505 13.434 13.9029 13.5365 13.7202 13.719ZM20.9751 13.4188C20.9254 13.7482 20.788 14.0581 20.5772 14.316C20.3663 14.574 20.0899 14.7703 19.777 14.8845L18.5552 15.3398L18.9053 16.5954C18.9943 16.9155 18.9967 17.2535 18.9122 17.5749C18.8277 17.8962 18.6594 18.1894 18.4244 18.4244C18.1895 18.6593 17.8963 18.8276 17.575 18.9121C17.2536 18.9966 16.9156 18.9942 16.5954 18.9052L15.3398 18.5551L14.8858 19.7769C14.7717 20.0897 14.5755 20.3659 14.3179 20.5767C14.0602 20.7875 13.7505 20.9251 13.4213 20.975C13.3213 20.9911 13.2201 20.9995 13.1187 21C12.8366 21.0003 12.5582 20.9363 12.3046 20.8128C12.0511 20.6893 11.829 20.5095 11.6555 20.2872L10.8476 19.2654L9.76452 19.9858C9.48741 20.1702 9.1662 20.2777 8.83385 20.297C8.50151 20.3163 8.17001 20.2469 7.87338 20.0958C7.57675 19.9446 7.32567 19.7173 7.14593 19.4371C6.96618 19.1569 6.86424 18.8339 6.85057 18.5013L6.79804 17.2007L5.49739 17.1481C5.16477 17.1345 4.84177 17.0325 4.56156 16.8528C4.28135 16.673 4.05402 16.422 3.9029 16.1253C3.75179 15.8287 3.68233 15.4972 3.70166 15.1649C3.72099 14.8325 3.82841 14.5113 4.0129 14.2342L4.73326 13.1512L3.7115 12.342C3.45063 12.1356 3.24937 11.8634 3.12836 11.5535C3.00735 11.2435 2.97094 10.907 3.02287 10.5784C3.0748 10.2498 3.2132 9.94085 3.42387 9.68334C3.63455 9.42583 3.90992 9.22898 4.22176 9.11298L5.44362 8.65901L5.09344 7.4034C5.00415 7.08319 5.00155 6.745 5.08592 6.42345C5.17029 6.1019 5.33859 5.80855 5.57359 5.57342C5.8086 5.33829 6.10186 5.16983 6.42337 5.08529C6.74488 5.00075 7.08308 5.00317 7.40335 5.09228L8.65897 5.44245L9.11295 4.22186C9.22895 3.91003 9.4258 3.63466 9.68331 3.42399C9.94083 3.21332 10.2497 3.07492 10.5784 3.02299C10.907 2.97106 11.2435 3.00747 11.5535 3.12848C11.8634 3.24949 12.1356 3.45074 12.3421 3.71161L13.1512 4.73336L14.2343 4.01301C14.5114 3.82853 14.8326 3.7211 15.1649 3.70177C15.4973 3.68244 15.8288 3.7519 16.1254 3.90301C16.422 4.05413 16.6731 4.28145 16.8529 4.56166C17.0326 4.84187 17.1345 5.16486 17.1482 5.49748L17.2007 6.79811L18.5014 6.85064C18.834 6.86431 19.157 6.96625 19.4372 7.14599C19.7174 7.32573 19.9448 7.5768 20.0959 7.87343C20.247 8.17006 20.3164 8.50155 20.2971 8.83389C20.2778 9.16623 20.1704 9.48744 19.9859 9.76455L19.2655 10.8463L20.2873 11.6555C20.5497 11.8606 20.752 12.1325 20.8731 12.4428C20.9941 12.7531 21.0294 13.0902 20.9751 13.4188ZM19.5119 12.6372L18.0374 11.4704C17.9144 11.373 17.8324 11.2329 17.8079 11.0779C17.7833 10.9229 17.8179 10.7644 17.9048 10.6337L18.9441 9.07171C19.0057 8.9794 19.0416 8.87236 19.0481 8.76159C19.0547 8.65081 19.0316 8.54029 18.9813 8.44138C18.931 8.34246 18.8553 8.25871 18.762 8.19871C18.6686 8.13872 18.561 8.10465 18.4501 8.09999L16.5742 8.02371C16.4172 8.01723 16.2683 7.95186 16.1573 7.84063C16.0463 7.72939 15.9813 7.58044 15.9751 7.42341L15.8976 5.54751C15.8927 5.43674 15.8585 5.32927 15.7984 5.23609C15.7383 5.14291 15.6546 5.06738 15.5557 5.01724C15.4568 4.9671 15.3464 4.94415 15.2357 4.95074C15.125 4.95734 15.0181 4.99324 14.9258 5.05477L13.3651 6.09277C13.2346 6.18048 13.0757 6.21568 12.9204 6.19133C12.765 6.16698 12.6246 6.08489 12.5272 5.96146L11.3616 4.48824C11.2927 4.4015 11.202 4.3346 11.0988 4.2944C10.9956 4.2542 10.8836 4.24213 10.7742 4.25943C10.6648 4.27673 10.5619 4.32278 10.4762 4.39286C10.3904 4.46295 10.3248 4.55456 10.286 4.65832L9.63071 6.41793C9.57672 6.56532 9.46896 6.68683 9.32907 6.75805C9.18918 6.82926 9.02753 6.84492 8.87658 6.80186L7.06818 6.29662C6.96132 6.26654 6.84837 6.26545 6.74095 6.29346C6.63352 6.32147 6.53549 6.37758 6.45693 6.45601C6.37837 6.53445 6.3221 6.63238 6.29391 6.73976C6.26573 6.84714 6.26663 6.96008 6.29654 7.06699L6.80179 8.87662C6.84394 9.02756 6.82787 9.18883 6.75677 9.32849C6.68566 9.46815 6.56471 9.57601 6.41785 9.63073L4.65823 10.2861C4.55446 10.3248 4.46285 10.3904 4.39276 10.4762C4.32267 10.5619 4.27662 10.6648 4.25932 10.7742C4.24202 10.8836 4.25409 10.9956 4.29429 11.0988C4.3345 11.202 4.40139 11.2927 4.48814 11.3616L5.96138 12.5284C6.08442 12.6258 6.16636 12.7659 6.19091 12.9208C6.21547 13.0758 6.18086 13.2344 6.09394 13.365L5.05467 14.9271C4.99342 15.0194 4.95779 15.1263 4.95142 15.2369C4.94505 15.3474 4.96818 15.4577 5.01843 15.5565C5.06868 15.6552 5.14425 15.7388 5.23742 15.7987C5.33059 15.8586 5.438 15.8927 5.54867 15.8975L7.42461 15.9751C7.58141 15.9815 7.73006 16.0467 7.84103 16.1577C7.95201 16.2687 8.0172 16.4173 8.02365 16.5741L8.10119 18.45C8.10585 18.5609 8.13992 18.6685 8.19991 18.7619C8.25991 18.8552 8.34366 18.9309 8.44258 18.9812C8.5415 19.0315 8.65202 19.0545 8.7628 19.048C8.87357 19.0415 8.98061 19.0056 9.07293 18.944L10.6337 17.906C10.7643 17.8186 10.9231 17.7836 11.0783 17.8079C11.2336 17.8322 11.374 17.9141 11.4716 18.0373L12.6372 19.5105C12.7061 19.5973 12.7968 19.6642 12.9 19.7044C13.0032 19.7446 13.1152 19.7566 13.2246 19.7393C13.334 19.722 13.4369 19.676 13.5226 19.6059C13.6084 19.5358 13.674 19.4442 13.7127 19.3404L14.3681 17.5808C14.4228 17.434 14.5307 17.313 14.6703 17.2419C14.81 17.1708 14.9713 17.1548 15.1222 17.1969L16.9306 17.7009C17.0375 17.7314 17.1507 17.7326 17.2582 17.7044C17.3658 17.6763 17.4639 17.6198 17.5422 17.5408C17.6216 17.4631 17.6784 17.3653 17.7066 17.2578C17.7348 17.1503 17.7333 17.0372 17.7022 16.9305L17.197 15.1209C17.1548 14.97 17.1709 14.8087 17.242 14.669C17.3131 14.5294 17.4341 14.4215 17.5809 14.3668L19.3406 13.7127C19.4443 13.674 19.5359 13.6084 19.606 13.5226C19.6761 13.4368 19.7222 13.334 19.7395 13.2246C19.7568 13.1152 19.7447 13.0032 19.7045 12.8999C19.6643 12.7967 19.5986 12.7061 19.5119 12.6372Z" fill="#9A5632" stroke="#9A5632" stroke-width="0.8"/>
</svg>
