<svg width="24" height="24" viewBox="0 0 24 24" fill="none" xmlns="http://www.w3.org/2000/svg">
<path d="M14.9096 9.9734L9.97341 14.9095C9.85547 15.0234 9.69752 15.0865 9.53356 15.085C9.36961 15.0836 9.21277 15.0179 9.09683 14.9019C8.9809 14.786 8.91513 14.6292 8.91371 14.4652C8.91228 14.3013 8.97531 14.1433 9.08922 14.0254L14.0254 9.08922C14.1434 8.97532 14.3013 8.91229 14.4653 8.91372C14.6292 8.91514 14.7861 8.9809 14.902 9.09684C15.0179 9.21277 15.0837 9.36961 15.0851 9.53356C15.0866 9.69751 15.0235 9.85547 14.9096 9.9734ZM10.2786 10.2785C10.4149 10.1423 10.5078 9.96876 10.5455 9.77975C10.5832 9.59073 10.564 9.39479 10.4903 9.2167C10.4166 9.03862 10.2917 8.8864 10.1315 8.7793C9.97123 8.67219 9.78283 8.61503 9.59009 8.61503C9.39735 8.61503 9.20895 8.67219 9.04871 8.7793C8.88847 8.8864 8.7636 9.03862 8.6899 9.2167C8.6162 9.39479 8.59697 9.59073 8.63466 9.77975C8.67235 9.96876 8.76525 10.1423 8.90162 10.2785C9.08429 10.461 9.33191 10.5635 9.59009 10.5635C9.84827 10.5635 10.0959 10.461 10.2786 10.2785ZM13.7203 13.719C13.5839 13.8552 13.491 14.0288 13.4533 14.2178C13.4156 14.4068 13.4349 14.6027 13.5086 14.7808C13.5823 14.9589 13.7071 15.1111 13.8674 15.2182C14.0276 15.3253 14.216 15.3825 14.4087 15.3825C14.6015 15.3825 14.7899 15.3253 14.9501 15.2182C15.1104 15.1111 15.2352 14.9589 15.3089 14.7808C15.3826 14.6027 15.4019 14.4068 15.3642 14.2178C15.3265 14.0288 15.2336 13.8552 15.0972 13.719C14.9145 13.5365 14.6669 13.434 14.4087 13.434C14.1506 13.434 13.9029 13.5365 13.7203 13.719ZM20.9751 13.4188C20.9255 13.7482 20.788 14.0581 20.5772 14.316C20.3664 14.574 20.09 14.7703 19.7771 14.8845L18.5552 15.3398L18.9054 16.5954C18.9944 16.9155 18.9968 17.2535 18.9123 17.5749C18.8278 17.8962 18.6594 18.1894 18.4245 18.4244C18.1895 18.6593 17.8964 18.8276 17.575 18.9121C17.2536 18.9966 16.9156 18.9942 16.5955 18.9052L15.3398 18.5551L14.8859 19.7769C14.7718 20.0897 14.5756 20.3659 14.3179 20.5767C14.0602 20.7875 13.7505 20.9251 13.4214 20.975C13.3213 20.9911 13.2201 20.9995 13.1187 21C12.8367 21.0003 12.5582 20.9363 12.3047 20.8128C12.0511 20.6893 11.8291 20.5095 11.6555 20.2872L10.8476 19.2654L9.76455 19.9858C9.48744 20.1702 9.16623 20.2777 8.83388 20.297C8.50154 20.3163 8.17004 20.2469 7.87341 20.0958C7.57678 19.9446 7.3257 19.7173 7.14596 19.4371C6.96621 19.1569 6.86427 18.8339 6.8506 18.5013L6.79807 17.2007L5.49742 17.1481C5.1648 17.1345 4.8418 17.0325 4.56159 16.8528C4.28138 16.673 4.05405 16.422 3.90293 16.1253C3.75182 15.8287 3.68236 15.4972 3.70169 15.1649C3.72102 14.8325 3.82845 14.5113 4.01293 14.2342L4.73329 13.1512L3.71153 12.342C3.45066 12.1356 3.2494 11.8634 3.12839 11.5535C3.00738 11.2435 2.97097 10.907 3.0229 10.5784C3.07483 10.2498 3.21323 9.94085 3.4239 9.68334C3.63458 9.42583 3.90995 9.22898 4.22179 9.11298L5.44365 8.65901L5.09347 7.4034C5.00418 7.08319 5.00158 6.745 5.08595 6.42345C5.17032 6.1019 5.33862 5.80855 5.57362 5.57342C5.80863 5.33829 6.1019 5.16983 6.4234 5.08529C6.74491 5.00075 7.08311 5.00317 7.40338 5.09228L8.659 5.44245L9.11298 4.22186C9.22898 3.91003 9.42583 3.63466 9.68334 3.42399C9.94086 3.21332 10.2498 3.07492 10.5784 3.02299C10.907 2.97106 11.2436 3.00747 11.5535 3.12848C11.8634 3.24949 12.1356 3.45074 12.3421 3.71161L13.1512 4.73336L14.2343 4.01301C14.5114 3.82853 14.8326 3.7211 15.165 3.70177C15.4973 3.68244 15.8288 3.7519 16.1254 3.90301C16.4221 4.05413 16.6731 4.28145 16.8529 4.56166C17.0326 4.84187 17.1346 5.16486 17.1482 5.49748L17.2008 6.79811L18.5014 6.85064C18.834 6.86431 19.157 6.96625 19.4372 7.14599C19.7175 7.32573 19.9448 7.5768 20.0959 7.87343C20.247 8.17006 20.3165 8.50155 20.2971 8.83389C20.2778 9.16623 20.1704 9.48744 19.9859 9.76455L19.2655 10.8463L20.2873 11.6555C20.5497 11.8606 20.7521 12.1325 20.8731 12.4428C20.9941 12.7531 21.0294 13.0902 20.9751 13.4188ZM19.5119 12.6372L18.0374 11.4704C17.9144 11.373 17.8325 11.2329 17.8079 11.0779C17.7833 10.9229 17.818 10.7644 17.9049 10.6337L18.9441 9.07171C19.0057 8.9794 19.0416 8.87236 19.0481 8.76159C19.0547 8.65081 19.0316 8.54029 18.9813 8.44138C18.931 8.34246 18.8553 8.25871 18.762 8.19871C18.6686 8.13872 18.561 8.10465 18.4501 8.09999L16.5742 8.02371C16.4172 8.01723 16.2684 7.95186 16.1574 7.84063C16.0464 7.72939 15.9813 7.58044 15.9752 7.42341L15.8976 5.54751C15.8927 5.43674 15.8585 5.32927 15.7984 5.23609C15.7384 5.14291 15.6546 5.06738 15.5557 5.01724C15.4568 4.9671 15.3464 4.94415 15.2357 4.95074C15.125 4.95734 15.0181 4.99324 14.9259 5.05477L13.3651 6.09277C13.2346 6.18048 13.0758 6.21568 12.9204 6.19133C12.765 6.16698 12.6246 6.08489 12.5272 5.96146L11.3616 4.48824C11.2927 4.4015 11.2021 4.3346 11.0988 4.2944C10.9956 4.2542 10.8836 4.24213 10.7742 4.25943C10.6648 4.27673 10.562 4.32278 10.4762 4.39286C10.3904 4.46295 10.3248 4.55456 10.2861 4.65832L9.63074 6.41793C9.57675 6.56532 9.46899 6.68683 9.3291 6.75805C9.18922 6.82926 9.02756 6.84492 8.87661 6.80186L7.06821 6.29662C6.96135 6.26654 6.8484 6.26545 6.74098 6.29346C6.63355 6.32147 6.53552 6.37758 6.45696 6.45601C6.3784 6.53445 6.32213 6.63238 6.29394 6.73976C6.26576 6.84714 6.26666 6.96008 6.29657 7.06699L6.80183 8.87662C6.84397 9.02756 6.8279 9.18883 6.7568 9.32849C6.6857 9.46815 6.56474 9.57601 6.41788 9.63073L4.65826 10.2861C4.55449 10.3248 4.46288 10.3904 4.39279 10.4762C4.3227 10.5619 4.27665 10.6648 4.25935 10.7742C4.24205 10.8836 4.25412 10.9956 4.29433 11.0988C4.33453 11.202 4.40142 11.2927 4.48817 11.3616L5.96141 12.5284C6.08445 12.6258 6.16639 12.7659 6.19094 12.9208C6.2155 13.0758 6.18089 13.2344 6.09397 13.365L5.0547 14.9271C4.99345 15.0194 4.95782 15.1263 4.95145 15.2369C4.94508 15.3474 4.96821 15.4577 5.01846 15.5565C5.06871 15.6552 5.14428 15.7388 5.23745 15.7987C5.33062 15.8586 5.43803 15.8927 5.5487 15.8975L7.42464 15.9751C7.58144 15.9815 7.73009 16.0467 7.84106 16.1577C7.95204 16.2687 8.01723 16.4173 8.02368 16.5741L8.10122 18.45C8.10588 18.5609 8.13995 18.6685 8.19994 18.7619C8.25994 18.8552 8.34369 18.9309 8.44261 18.9812C8.54153 19.0315 8.65205 19.0545 8.76283 19.048C8.8736 19.0415 8.98064 19.0056 9.07296 18.944L10.6337 17.906C10.7643 17.8186 10.9231 17.7836 11.0784 17.8079C11.2336 17.8322 11.374 17.9141 11.4717 18.0373L12.6372 19.5105C12.7061 19.5973 12.7968 19.6642 12.9 19.7044C13.0032 19.7446 13.1152 19.7566 13.2246 19.7393C13.334 19.722 13.4369 19.676 13.5227 19.6059C13.6084 19.5358 13.674 19.4442 13.7128 19.3404L14.3681 17.5808C14.4228 17.434 14.5307 17.313 14.6704 17.2419C14.81 17.1708 14.9713 17.1548 15.1222 17.1969L16.9306 17.7009C17.0376 17.7314 17.1507 17.7326 17.2583 17.7044C17.3658 17.6763 17.4639 17.6198 17.5422 17.5408C17.6216 17.4631 17.6784 17.3653 17.7066 17.2578C17.7348 17.1503 17.7333 17.0372 17.7023 16.9305L17.197 15.1209C17.1549 14.97 17.1709 14.8087 17.242 14.669C17.3131 14.5294 17.4341 14.4215 17.581 14.3668L19.3406 13.7127C19.4443 13.674 19.536 13.6084 19.606 13.5226C19.6761 13.4368 19.7222 13.334 19.7395 13.2246C19.7568 13.1152 19.7447 13.0032 19.7045 12.8999C19.6643 12.7967 19.5987 12.7061 19.5119 12.6372Z" fill="#9A5632" stroke="#9A5632" stroke-width="0.8"/>
</svg>
