<svg width="24" height="24" viewBox="0 0 24 24" fill="none" xmlns="http://www.w3.org/2000/svg">
<path d="M12 2C6.48603 2 2 6.48604 2 12C2 17.514 6.48603 22 12 22C17.514 22 22 17.514 22 12C22 6.48604 17.514 2 12 2ZM12 3.5C16.7033 3.5 20.5 7.2967 20.5 12C20.5 14.2281 19.641 16.2459 18.2441 17.7598C17.0508 15.5255 14.7047 14 12 14C9.29527 14 6.94916 15.5255 5.75586 17.7598C4.35902 16.2459 3.5 14.2281 3.5 12C3.5 7.2967 7.29669 3.5 12 3.5ZM12 7C10.895 7 10 7.895 10 9V10C10 11.105 10.895 12 12 12C13.105 12 14 11.105 14 10V9C14 7.895 13.105 7 12 7ZM12 15.5C14.2773 15.5 16.1997 16.8658 17.0742 18.8125C15.658 19.8681 13.9069 20.5 12 20.5C10.0931 20.5 8.34202 19.8681 6.92578 18.8125C7.80027 16.8658 9.72268 15.5 12 15.5Z" fill="#8A8E8A"/>
</svg>
